<svg id="Capa_1" enable-background="new 0 0 512 512" height="512" viewBox="0 0 512 512" width="512" xmlns="http://www.w3.org/2000/svg"><g><path d="m446.547 138.473v-138.473h-381.094v138.473l-65.453 48.481v325.046h512v-325.046zm-265.723 197.551-150.824 128.492v-240.206zm24.746 18.329 50.43 37.353 50.43-37.353 149.833 127.647h-400.526zm125.606-18.329 150.824-111.714v240.205zm140.638-141.502-25.267 18.715v-37.43zm-55.267-164.136v205.071l-160.547 118.916-160.547-118.916v-205.071zm-351.094 182.85-25.267-18.715 25.267-18.715z"/><path d="m354.395 70.789h-196.449v186.448h196.449zm-30 30v72.642l-42.634-31.378-33.827 30.16-28.899-21.808-31.088 23.578v-73.194zm-3.546 126.448-48.5-36.599 11.22-10.004 40.826 30.047v16.557h-3.546zm-132.903-15.603 31.133-23.611 51.965 39.215h-83.098z"/><path d="m247.252 144.2c7.846 0 15.363-6.899 15-15-.364-8.127-6.591-15-15-15-7.846 0-15.363 6.899-15 15 .363 8.127 6.59 15 15 15z"/></g></svg>