<?xml version="1.0" encoding="iso-8859-1"?>
<!-- Generator: Adobe Illustrator 19.0.0, SVG Export Plug-In . SVG Version: 6.00 Build 0)  -->
<svg version="1.1" id="Capa_1" xmlns="http://www.w3.org/2000/svg" xmlns:xlink="http://www.w3.org/1999/xlink" x="0px" y="0px"
	 viewBox="0 0 512 512" style="enable-background:new 0 0 512 512;" xml:space="preserve">
<g>
	<g>
		<path d="M171.708,272.584l-60-30c-7.407-3.703-16.419-0.702-20.124,6.708c-3.705,7.409-0.702,16.42,6.708,20.125l60,30
			c7.41,3.705,16.42,0.701,20.124-6.708C182.121,285.299,179.118,276.289,171.708,272.584z"/>
	</g>
</g>
<g>
	<g>
		<path d="M330.416,249.292c-3.704-7.409-12.713-10.413-20.124-6.708l-60,30c-7.41,3.705-10.413,12.715-6.708,20.125
			c3.704,7.409,12.713,10.412,20.124,6.708l60-30C331.118,265.712,334.121,256.702,330.416,249.292z"/>
	</g>
</g>
<g>
	<g>
		<path d="M497,331h-17.573c-21.423,0-41.656-7.672-57.604-21.685C421.93,306.551,422,303.781,422,301v-90
			C422,94.902,327.077,0,211,0C94.902,0,0,94.923,0,211v90c0,116.099,94.923,211,211,211c43.974,0,85.992-13.538,121.361-38.652
			C354.492,497.773,386.073,512,419.427,512H437c8.284,0,15-6.716,15-15v-60c0-8.284-6.716-15-15-15h-17.573
			c-10.918,0-21.678-2.048-31.759-5.979c5.189-7.9,9.827-16.1,13.878-24.56c21.85,19.48,49.858,30.539,77.881,30.539H497
			c8.284,0,15-6.716,15-15v-61C512,337.716,505.284,331,497,331z M211,30c96.326,0,175.309,75.64,180.697,170.641
			C346.586,163.639,269.421,151,211,151c-59.073,0-135.918,12.912-180.697,49.641C35.691,105.64,114.674,30,211,30z M422,452v30
			c-27.845,0-50.043-10.237-66.423-27.726c4.333-4.095,8.405-8.218,13.288-13.719C386.83,449.127,403.641,452,422,452z M211,482
			c-96.326,0-175.309-75.64-180.697-170.641C75.414,348.361,152.579,361,211,361c59.073,0,135.919-12.912,180.697-49.641
			C386.309,406.36,307.326,482,211,482z M211,331c-106.666,0-181-39.526-181-75s74.334-75,181-75s181,39.526,181,75
			S317.666,331,211,331z M482,392c-26.094,0-47.7-9.913-64.394-26.607l-4.336-4.336c1.722-5.775,3.195-11.632,4.413-17.558
			C438.33,356.31,459.269,361,482,361V392z"/>
	</g>
</g>
<g>
</g>
<g>
</g>
<g>
</g>
<g>
</g>
<g>
</g>
<g>
</g>
<g>
</g>
<g>
</g>
<g>
</g>
<g>
</g>
<g>
</g>
<g>
</g>
<g>
</g>
<g>
</g>
<g>
</g>
</svg>
