<svg width="387" height="365" viewBox="0 0 387 365" fill="none" xmlns="http://www.w3.org/2000/svg">
<g id="splash2" filter="url(#filter0_d)">
<rect width="347" height="325" transform="translate(20 16)" fill="white"/>
<path id="Rectangle 8" d="M41 282C41 279.239 43.2386 277 46 277H294C296.761 277 299 279.239 299 282V311C299 313.761 296.761 316 294 316H46C43.2386 316 41 313.761 41 311V282Z" fill="#BCAEE2" fill-opacity="0.32"/>
<circle id="Ellipse 1" cx="306" cy="30" r="7" fill="white"/>
<circle id="Ellipse 2" cx="328" cy="30" r="7" fill="white"/>
<circle id="Ellipse 3" cx="350" cy="30" r="7" fill="white"/>
<path id="Create event" d="M42.123 57.1499C42.123 54.0086 42.9653 51.5876 44.6499 49.8867C46.1147 48.4056 47.9784 47.665 50.2407 47.665C53.2681 47.665 55.4816 48.6579 56.8813 50.6436C57.6545 51.7585 58.0695 52.8774 58.1265 54.0005H54.3667C54.1226 53.1379 53.8092 52.4868 53.4268 52.0474C52.7432 51.2661 51.73 50.8755 50.3872 50.8755C49.02 50.8755 47.9417 51.4289 47.1523 52.5356C46.363 53.6343 45.9683 55.1927 45.9683 57.2109C45.9683 59.2292 46.3833 60.7428 47.2134 61.752C48.0516 62.7529 49.1136 63.2534 50.3994 63.2534C51.7178 63.2534 52.7228 62.8221 53.4146 61.9595C53.797 61.4956 54.1144 60.7998 54.3667 59.8721H58.0898C57.7643 61.8333 56.9302 63.4284 55.5874 64.6572C54.2528 65.8861 52.5397 66.5005 50.4482 66.5005C47.8604 66.5005 45.8258 65.6704 44.3447 64.0103C42.8636 62.342 42.123 60.0552 42.123 57.1499ZM67.9165 52.377C67.9816 52.377 68.0345 52.381 68.0752 52.3892C68.124 52.3892 68.2257 52.3932 68.3804 52.4014V55.9658C68.1606 55.9414 67.9653 55.9251 67.7944 55.917C67.6235 55.9089 67.4852 55.9048 67.3794 55.9048C65.9797 55.9048 65.0397 56.3605 64.5596 57.272C64.291 57.7847 64.1567 58.5741 64.1567 59.6401V66H60.6533V52.6943H63.9736V55.0137C64.5107 54.1266 64.9787 53.5203 65.3774 53.1948C66.0285 52.6496 66.8748 52.377 67.9165 52.377ZM75.6802 55.209C74.8745 55.209 74.2479 55.4613 73.8003 55.9658C73.3608 56.4704 73.0841 57.154 72.9702 58.0166H78.3779C78.321 57.097 78.0402 56.4012 77.5356 55.9292C77.0392 55.4491 76.4207 55.209 75.6802 55.209ZM75.6802 52.3403C76.7869 52.3403 77.7839 52.5479 78.6709 52.9629C79.5579 53.3779 80.2904 54.033 80.8682 54.9282C81.389 55.7176 81.7267 56.6331 81.8813 57.6748C81.9709 58.2852 82.0075 59.1641 81.9912 60.3115H72.8848C72.9336 61.6462 73.3527 62.582 74.1421 63.1191C74.6222 63.4528 75.2 63.6196 75.8755 63.6196C76.5916 63.6196 77.1735 63.4162 77.6211 63.0093C77.8652 62.7896 78.0809 62.4844 78.2681 62.0938H81.8203C81.7308 62.8831 81.3198 63.6847 80.5874 64.4985C79.4481 65.7925 77.853 66.4395 75.8022 66.4395C74.1095 66.4395 72.6162 65.8942 71.3223 64.8037C70.0283 63.7132 69.3813 61.9391 69.3813 59.4814C69.3813 57.1784 69.9632 55.4124 71.127 54.1836C72.2988 52.9548 73.8166 52.3403 75.6802 52.3403ZM91.6836 59.5303C91.4639 59.6686 91.2401 59.7826 91.0122 59.8721C90.7925 59.9535 90.4873 60.0308 90.0967 60.104L89.3154 60.2505C88.583 60.3807 88.0581 60.5394 87.7407 60.7266C87.2036 61.0439 86.9351 61.5363 86.9351 62.2036C86.9351 62.7977 87.0978 63.229 87.4233 63.4976C87.757 63.758 88.1598 63.8882 88.6318 63.8882C89.3805 63.8882 90.0682 63.6685 90.6948 63.229C91.3296 62.7896 91.6592 61.988 91.6836 60.8242V59.5303ZM89.5718 57.9067C90.2147 57.8254 90.6745 57.7236 90.9512 57.6016C91.4476 57.39 91.6958 57.0604 91.6958 56.6128C91.6958 56.0675 91.5046 55.6932 91.1221 55.4897C90.7477 55.2782 90.1943 55.1724 89.4619 55.1724C88.64 55.1724 88.0581 55.3758 87.7163 55.7827C87.4722 56.0838 87.3094 56.4907 87.228 57.0034H83.8711C83.9443 55.8397 84.2699 54.8835 84.8477 54.1348C85.7673 52.9629 87.346 52.377 89.584 52.377C91.0407 52.377 92.3346 52.6659 93.4658 53.2437C94.597 53.8215 95.1626 54.9119 95.1626 56.5151V62.6187C95.1626 63.0418 95.1707 63.5545 95.187 64.1567C95.2114 64.6125 95.2806 64.9217 95.3945 65.0845C95.5085 65.2472 95.6794 65.3815 95.9072 65.4873V66H92.123C92.0173 65.7314 91.944 65.4792 91.9033 65.2432C91.8626 65.0072 91.8301 64.7386 91.8057 64.4375C91.3255 64.9583 90.7721 65.4019 90.1455 65.7681C89.3968 66.1994 88.5505 66.415 87.6064 66.415C86.402 66.415 85.4051 66.0732 84.6157 65.3896C83.8345 64.6979 83.4438 63.7214 83.4438 62.46C83.4438 60.8242 84.0745 59.6401 85.3359 58.9077C86.0277 58.509 87.0449 58.2241 88.3877 58.0532L89.5718 57.9067ZM96.896 55.2944V52.8164H98.7515V49.1055H102.194V52.8164H104.354V55.2944H102.194V62.3257C102.194 62.8709 102.263 63.2127 102.401 63.3511C102.54 63.4813 102.963 63.5464 103.671 63.5464C103.777 63.5464 103.887 63.5464 104 63.5464C104.123 63.5382 104.241 63.5301 104.354 63.522V66.1221L102.707 66.1831C101.063 66.2401 99.9396 65.9552 99.3374 65.3286C98.9468 64.9299 98.7515 64.3154 98.7515 63.4854V55.2944H96.896ZM111.837 55.209C111.032 55.209 110.405 55.4613 109.958 55.9658C109.518 56.4704 109.241 57.154 109.127 58.0166H114.535C114.478 57.097 114.197 56.4012 113.693 55.9292C113.196 55.4491 112.578 55.209 111.837 55.209ZM111.837 52.3403C112.944 52.3403 113.941 52.5479 114.828 52.9629C115.715 53.3779 116.448 54.033 117.025 54.9282C117.546 55.7176 117.884 56.6331 118.039 57.6748C118.128 58.2852 118.165 59.1641 118.148 60.3115H109.042C109.091 61.6462 109.51 62.582 110.299 63.1191C110.779 63.4528 111.357 63.6196 112.033 63.6196C112.749 63.6196 113.331 63.4162 113.778 63.0093C114.022 62.7896 114.238 62.4844 114.425 62.0938H117.978C117.888 62.8831 117.477 63.6847 116.745 64.4985C115.605 65.7925 114.01 66.4395 111.959 66.4395C110.267 66.4395 108.773 65.8942 107.479 64.8037C106.186 63.7132 105.539 61.9391 105.539 59.4814C105.539 57.1784 106.12 55.4124 107.284 54.1836C108.456 52.9548 109.974 52.3403 111.837 52.3403ZM132.711 55.209C131.906 55.209 131.279 55.4613 130.832 55.9658C130.392 56.4704 130.115 57.154 130.001 58.0166H135.409C135.352 57.097 135.071 56.4012 134.567 55.9292C134.07 55.4491 133.452 55.209 132.711 55.209ZM132.711 52.3403C133.818 52.3403 134.815 52.5479 135.702 52.9629C136.589 53.3779 137.322 54.033 137.899 54.9282C138.42 55.7176 138.758 56.6331 138.913 57.6748C139.002 58.2852 139.039 59.1641 139.022 60.3115H129.916C129.965 61.6462 130.384 62.582 131.173 63.1191C131.653 63.4528 132.231 63.6196 132.907 63.6196C133.623 63.6196 134.205 63.4162 134.652 63.0093C134.896 62.7896 135.112 62.4844 135.299 62.0938H138.852C138.762 62.8831 138.351 63.6847 137.619 64.4985C136.479 65.7925 134.884 66.4395 132.833 66.4395C131.141 66.4395 129.647 65.8942 128.354 64.8037C127.06 63.7132 126.413 61.9391 126.413 59.4814C126.413 57.1784 126.994 55.4124 128.158 54.1836C129.33 52.9548 130.848 52.3403 132.711 52.3403ZM149.582 52.6943H153.317L148.52 66H144.845L140.072 52.6943H143.979L146.75 62.5088L149.582 52.6943ZM160.543 55.209C159.738 55.209 159.111 55.4613 158.664 55.9658C158.224 56.4704 157.947 57.154 157.833 58.0166H163.241C163.184 57.097 162.903 56.4012 162.399 55.9292C161.903 55.4491 161.284 55.209 160.543 55.209ZM160.543 52.3403C161.65 52.3403 162.647 52.5479 163.534 52.9629C164.421 53.3779 165.154 54.033 165.731 54.9282C166.252 55.7176 166.59 56.6331 166.745 57.6748C166.834 58.2852 166.871 59.1641 166.854 60.3115H157.748C157.797 61.6462 158.216 62.582 159.005 63.1191C159.486 63.4528 160.063 63.6196 160.739 63.6196C161.455 63.6196 162.037 63.4162 162.484 63.0093C162.729 62.7896 162.944 62.4844 163.131 62.0938H166.684C166.594 62.8831 166.183 63.6847 165.451 64.4985C164.311 65.7925 162.716 66.4395 160.666 66.4395C158.973 66.4395 157.479 65.8942 156.186 64.8037C154.892 63.7132 154.245 61.9391 154.245 59.4814C154.245 57.1784 154.826 55.4124 155.99 54.1836C157.162 52.9548 158.68 52.3403 160.543 52.3403ZM176.583 52.377C177.959 52.377 179.082 52.7391 179.953 53.4634C180.832 54.1795 181.271 55.3717 181.271 57.04V66H177.707V57.9067C177.707 57.2069 177.613 56.6698 177.426 56.2954C177.084 55.6118 176.433 55.27 175.473 55.27C174.293 55.27 173.483 55.7705 173.043 56.7715C172.816 57.3005 172.702 57.9759 172.702 58.7979V66H169.235V52.7188H172.592V54.6597C173.039 53.9761 173.463 53.4837 173.861 53.1826C174.577 52.6455 175.485 52.377 176.583 52.377ZM183.126 55.2944V52.8164H184.982V49.1055H188.424V52.8164H190.585V55.2944H188.424V62.3257C188.424 62.8709 188.493 63.2127 188.632 63.3511C188.77 63.4813 189.193 63.5464 189.901 63.5464C190.007 63.5464 190.117 63.5464 190.231 63.5464C190.353 63.5382 190.471 63.5301 190.585 63.522V66.1221L188.937 66.1831C187.293 66.2401 186.17 65.9552 185.568 65.3286C185.177 64.9299 184.982 64.3154 184.982 63.4854V55.2944H183.126Z" fill="black"/>
<path id="Name" d="M42.0322 95.9238H44.2402L48.2529 102.958V95.9238H50.2148V106H48.1094L43.9941 98.8428V106H42.0322V95.9238ZM56.1348 102.377C56.0117 102.454 55.8864 102.518 55.7588 102.568C55.6357 102.614 55.4648 102.657 55.2461 102.698L54.8086 102.78C54.3984 102.853 54.1045 102.942 53.9268 103.047C53.626 103.225 53.4756 103.5 53.4756 103.874C53.4756 104.207 53.5667 104.448 53.749 104.599C53.9359 104.744 54.1615 104.817 54.4258 104.817C54.8451 104.817 55.2301 104.694 55.5811 104.448C55.9365 104.202 56.1211 103.753 56.1348 103.102V102.377ZM54.9521 101.468C55.3122 101.422 55.5697 101.365 55.7246 101.297C56.0026 101.178 56.1416 100.994 56.1416 100.743C56.1416 100.438 56.0345 100.228 55.8203 100.114C55.6107 99.9958 55.3008 99.9365 54.8906 99.9365C54.4303 99.9365 54.1045 100.05 53.9131 100.278C53.7764 100.447 53.6852 100.675 53.6396 100.962H51.7598C51.8008 100.31 51.9831 99.7747 52.3066 99.3555C52.8216 98.6992 53.7057 98.3711 54.959 98.3711C55.7747 98.3711 56.4993 98.5329 57.1328 98.8564C57.7663 99.18 58.083 99.7907 58.083 100.688V104.106C58.083 104.343 58.0876 104.631 58.0967 104.968C58.1104 105.223 58.1491 105.396 58.2129 105.487C58.2767 105.578 58.3724 105.654 58.5 105.713V106H56.3809C56.3216 105.85 56.2806 105.708 56.2578 105.576C56.235 105.444 56.2168 105.294 56.2031 105.125C55.9342 105.417 55.6243 105.665 55.2734 105.87C54.8542 106.112 54.3802 106.232 53.8516 106.232C53.1771 106.232 52.6188 106.041 52.1768 105.658C51.7393 105.271 51.5205 104.724 51.5205 104.018C51.5205 103.102 51.8737 102.438 52.5801 102.028C52.9674 101.805 53.5371 101.646 54.2891 101.55L54.9521 101.468ZM68.1455 98.3848C68.4736 98.3848 68.7972 98.4486 69.1162 98.5762C69.4352 98.7038 69.7246 98.9271 69.9844 99.2461C70.194 99.5059 70.3353 99.8249 70.4082 100.203C70.4538 100.454 70.4766 100.821 70.4766 101.304L70.4629 106H68.4668V101.256C68.4668 100.973 68.4212 100.741 68.3301 100.559C68.1569 100.212 67.8379 100.039 67.373 100.039C66.8353 100.039 66.4639 100.262 66.2588 100.709C66.154 100.946 66.1016 101.231 66.1016 101.563V106H64.1396V101.563C64.1396 101.121 64.0941 100.8 64.0029 100.6C63.8389 100.24 63.5176 100.06 63.0391 100.06C62.4831 100.06 62.1094 100.24 61.918 100.6C61.8132 100.805 61.7607 101.11 61.7607 101.516V106H59.7852V98.5625H61.6787V99.6494C61.9202 99.262 62.1481 98.9863 62.3623 98.8223C62.7406 98.5306 63.2305 98.3848 63.832 98.3848C64.4017 98.3848 64.862 98.5101 65.2129 98.7607C65.4954 98.9932 65.7096 99.2917 65.8555 99.6562C66.1107 99.2188 66.4274 98.8975 66.8057 98.6924C67.2067 98.4873 67.6533 98.3848 68.1455 98.3848ZM75.2139 99.957C74.7627 99.957 74.4118 100.098 74.1611 100.381C73.915 100.663 73.7601 101.046 73.6963 101.529H76.7246C76.6927 101.014 76.5355 100.625 76.2529 100.36C75.9749 100.091 75.6286 99.957 75.2139 99.957ZM75.2139 98.3506C75.8337 98.3506 76.3919 98.4668 76.8887 98.6992C77.3854 98.9316 77.7956 99.2985 78.1191 99.7998C78.4108 100.242 78.5999 100.755 78.6865 101.338C78.7367 101.68 78.7572 102.172 78.748 102.814H73.6484C73.6758 103.562 73.9105 104.086 74.3525 104.387C74.6214 104.574 74.945 104.667 75.3232 104.667C75.7243 104.667 76.0501 104.553 76.3008 104.325C76.4375 104.202 76.5583 104.031 76.6631 103.812H78.6523C78.6022 104.255 78.3721 104.703 77.9619 105.159C77.3239 105.884 76.4307 106.246 75.2822 106.246C74.3343 106.246 73.498 105.941 72.7734 105.33C72.0488 104.719 71.6865 103.726 71.6865 102.35C71.6865 101.06 72.0124 100.071 72.6641 99.3828C73.3203 98.6947 74.1702 98.3506 75.2139 98.3506Z" fill="#BFBFBF"/>
<path id="Details" d="M45.1104 156.674V163.25H47.0518C48.0452 163.25 48.738 162.76 49.1299 161.78C49.3441 161.243 49.4512 160.602 49.4512 159.859C49.4512 158.834 49.2894 158.048 48.9658 157.501C48.6468 156.95 48.0088 156.674 47.0518 156.674H45.1104ZM47.4072 154.924C48.0316 154.933 48.5511 155.006 48.9658 155.143C49.6722 155.375 50.2441 155.801 50.6816 156.421C51.0326 156.922 51.2718 157.465 51.3994 158.048C51.527 158.631 51.5908 159.187 51.5908 159.716C51.5908 161.056 51.3219 162.19 50.7842 163.12C50.055 164.373 48.9294 165 47.4072 165H43.0664V154.924H47.4072ZM55.9658 158.957C55.5146 158.957 55.1637 159.098 54.9131 159.381C54.667 159.663 54.512 160.046 54.4482 160.529H57.4766C57.4447 160.014 57.2874 159.625 57.0049 159.36C56.7269 159.091 56.3805 158.957 55.9658 158.957ZM55.9658 157.351C56.5856 157.351 57.1439 157.467 57.6406 157.699C58.1374 157.932 58.5475 158.299 58.8711 158.8C59.1628 159.242 59.3519 159.755 59.4385 160.338C59.4886 160.68 59.5091 161.172 59.5 161.814H54.4004C54.4277 162.562 54.6624 163.086 55.1045 163.387C55.3734 163.574 55.6969 163.667 56.0752 163.667C56.4762 163.667 56.8021 163.553 57.0527 163.325C57.1895 163.202 57.3102 163.031 57.415 162.812H59.4043C59.3542 163.255 59.124 163.703 58.7139 164.159C58.0758 164.884 57.1826 165.246 56.0342 165.246C55.0863 165.246 54.25 164.941 53.5254 164.33C52.8008 163.719 52.4385 162.726 52.4385 161.35C52.4385 160.06 52.7643 159.071 53.416 158.383C54.0723 157.695 54.9222 157.351 55.9658 157.351ZM60.0537 159.005V157.617H61.0928V155.539H63.0205V157.617H64.2305V159.005H63.0205V162.942C63.0205 163.248 63.0592 163.439 63.1367 163.517C63.2142 163.59 63.4512 163.626 63.8477 163.626C63.9069 163.626 63.9684 163.626 64.0322 163.626C64.1006 163.621 64.1667 163.617 64.2305 163.612V165.068L63.3076 165.103C62.387 165.134 61.7581 164.975 61.4209 164.624C61.2021 164.401 61.0928 164.057 61.0928 163.592V159.005H60.0537ZM69.5898 161.377C69.4668 161.454 69.3415 161.518 69.2139 161.568C69.0908 161.614 68.9199 161.657 68.7012 161.698L68.2637 161.78C67.8535 161.853 67.5596 161.942 67.3818 162.047C67.0811 162.225 66.9307 162.5 66.9307 162.874C66.9307 163.207 67.0218 163.448 67.2041 163.599C67.391 163.744 67.6165 163.817 67.8809 163.817C68.3001 163.817 68.6852 163.694 69.0361 163.448C69.3916 163.202 69.5762 162.753 69.5898 162.102V161.377ZM68.4072 160.468C68.7673 160.422 69.0247 160.365 69.1797 160.297C69.4577 160.178 69.5967 159.994 69.5967 159.743C69.5967 159.438 69.4896 159.228 69.2754 159.114C69.0658 158.996 68.7559 158.937 68.3457 158.937C67.8854 158.937 67.5596 159.05 67.3682 159.278C67.2314 159.447 67.1403 159.675 67.0947 159.962H65.2148C65.2559 159.31 65.4382 158.775 65.7617 158.355C66.2767 157.699 67.1608 157.371 68.4141 157.371C69.2298 157.371 69.9544 157.533 70.5879 157.856C71.2214 158.18 71.5381 158.791 71.5381 159.688V163.106C71.5381 163.343 71.5426 163.631 71.5518 163.968C71.5654 164.223 71.6042 164.396 71.668 164.487C71.7318 164.578 71.8275 164.654 71.9551 164.713V165H69.8359C69.7767 164.85 69.7357 164.708 69.7129 164.576C69.6901 164.444 69.6719 164.294 69.6582 164.125C69.3893 164.417 69.0794 164.665 68.7285 164.87C68.3092 165.112 67.8353 165.232 67.3066 165.232C66.6322 165.232 66.0739 165.041 65.6318 164.658C65.1943 164.271 64.9756 163.724 64.9756 163.018C64.9756 162.102 65.3288 161.438 66.0352 161.028C66.4225 160.805 66.9922 160.646 67.7441 160.55L68.4072 160.468ZM75.2773 156.66H73.3018V154.862H75.2773V156.66ZM73.3018 157.549H75.2773V165H73.3018V157.549ZM79.1602 165H77.2119V154.924H79.1602V165ZM82.585 162.621C82.626 162.967 82.7148 163.214 82.8516 163.359C83.0931 163.619 83.5397 163.749 84.1914 163.749C84.5742 163.749 84.8773 163.692 85.1006 163.578C85.3285 163.464 85.4424 163.293 85.4424 163.065C85.4424 162.847 85.3512 162.68 85.1689 162.566C84.9867 162.452 84.3099 162.257 83.1387 161.979C82.2956 161.769 81.7008 161.507 81.3545 161.192C81.0081 160.882 80.835 160.436 80.835 159.853C80.835 159.164 81.1038 158.574 81.6416 158.082C82.1839 157.585 82.945 157.337 83.9248 157.337C84.8545 157.337 85.611 157.524 86.1943 157.897C86.7822 158.267 87.1195 158.907 87.2061 159.818H85.2578C85.2305 159.568 85.1598 159.369 85.0459 159.224C84.8317 158.959 84.4671 158.827 83.9521 158.827C83.5283 158.827 83.2253 158.893 83.043 159.025C82.8652 159.158 82.7764 159.312 82.7764 159.49C82.7764 159.714 82.8721 159.875 83.0635 159.976C83.2549 160.08 83.9316 160.26 85.0938 160.516C85.8685 160.698 86.4495 160.974 86.8369 161.343C87.2197 161.716 87.4111 162.184 87.4111 162.744C87.4111 163.482 87.1354 164.086 86.584 164.556C86.0371 165.021 85.1895 165.253 84.041 165.253C82.8698 165.253 82.0039 165.007 81.4434 164.515C80.8874 164.018 80.6094 163.387 80.6094 162.621H82.585Z" fill="#BFBFBF"/>
<path id="Contact Email" d="M41.6289 258.044C41.6289 256.285 42.1006 254.929 43.0439 253.977C43.8643 253.147 44.9079 252.732 46.1748 252.732C47.8701 252.732 49.1097 253.288 49.8936 254.4C50.3265 255.025 50.5589 255.651 50.5908 256.28H48.4854C48.3486 255.797 48.1732 255.433 47.959 255.187C47.5762 254.749 47.0088 254.53 46.2568 254.53C45.4912 254.53 44.8874 254.84 44.4453 255.46C44.0033 256.075 43.7822 256.948 43.7822 258.078C43.7822 259.208 44.0146 260.056 44.4795 260.621C44.9489 261.182 45.5436 261.462 46.2637 261.462C47.002 261.462 47.5648 261.22 47.9521 260.737C48.1663 260.478 48.3441 260.088 48.4854 259.568H50.5703C50.388 260.667 49.9209 261.56 49.1689 262.248C48.4215 262.936 47.4622 263.28 46.291 263.28C44.8418 263.28 43.7025 262.815 42.873 261.886C42.0436 260.951 41.6289 259.671 41.6289 258.044ZM55.3691 261.626C55.9388 261.626 56.3763 261.423 56.6816 261.018C56.987 260.612 57.1396 260.035 57.1396 259.288C57.1396 258.541 56.987 257.966 56.6816 257.565C56.3763 257.16 55.9388 256.957 55.3691 256.957C54.7995 256.957 54.3597 257.16 54.0498 257.565C53.7445 257.966 53.5918 258.541 53.5918 259.288C53.5918 260.035 53.7445 260.612 54.0498 261.018C54.3597 261.423 54.7995 261.626 55.3691 261.626ZM59.1836 259.288C59.1836 260.382 58.8691 261.318 58.2402 262.098C57.6113 262.872 56.6566 263.26 55.376 263.26C54.0954 263.26 53.1406 262.872 52.5117 262.098C51.8828 261.318 51.5684 260.382 51.5684 259.288C51.5684 258.213 51.8828 257.281 52.5117 256.492C53.1406 255.704 54.0954 255.31 55.376 255.31C56.6566 255.31 57.6113 255.704 58.2402 256.492C58.8691 257.281 59.1836 258.213 59.1836 259.288ZM64.7139 255.371C65.484 255.371 66.113 255.574 66.6006 255.979C67.0928 256.381 67.3389 257.048 67.3389 257.982V263H65.3428V258.468C65.3428 258.076 65.2904 257.775 65.1855 257.565C64.9941 257.183 64.6296 256.991 64.0918 256.991C63.431 256.991 62.9775 257.271 62.7314 257.832C62.6038 258.128 62.54 258.507 62.54 258.967V263H60.5986V255.562H62.4785V256.649C62.7292 256.267 62.9661 255.991 63.1895 255.822C63.5905 255.521 64.0986 255.371 64.7139 255.371ZM68.3779 257.005V255.617H69.417V253.539H71.3447V255.617H72.5547V257.005H71.3447V260.942C71.3447 261.248 71.3835 261.439 71.4609 261.517C71.5384 261.59 71.7754 261.626 72.1719 261.626C72.2311 261.626 72.2926 261.626 72.3564 261.626C72.4248 261.621 72.4909 261.617 72.5547 261.612V263.068L71.6318 263.103C70.7113 263.134 70.0824 262.975 69.7451 262.624C69.5264 262.401 69.417 262.057 69.417 261.592V257.005H68.3779ZM77.9141 259.377C77.791 259.454 77.6657 259.518 77.5381 259.568C77.415 259.614 77.2441 259.657 77.0254 259.698L76.5879 259.78C76.1777 259.853 75.8838 259.942 75.7061 260.047C75.4053 260.225 75.2549 260.5 75.2549 260.874C75.2549 261.207 75.346 261.448 75.5283 261.599C75.7152 261.744 75.9408 261.817 76.2051 261.817C76.6243 261.817 77.0094 261.694 77.3604 261.448C77.7158 261.202 77.9004 260.753 77.9141 260.102V259.377ZM76.7314 258.468C77.0915 258.422 77.349 258.365 77.5039 258.297C77.7819 258.178 77.9209 257.994 77.9209 257.743C77.9209 257.438 77.8138 257.228 77.5996 257.114C77.39 256.996 77.0801 256.937 76.6699 256.937C76.2096 256.937 75.8838 257.05 75.6924 257.278C75.5557 257.447 75.4645 257.675 75.4189 257.962H73.5391C73.5801 257.31 73.7624 256.775 74.0859 256.355C74.6009 255.699 75.485 255.371 76.7383 255.371C77.554 255.371 78.2786 255.533 78.9121 255.856C79.5456 256.18 79.8623 256.791 79.8623 257.688V261.106C79.8623 261.343 79.8669 261.631 79.876 261.968C79.8896 262.223 79.9284 262.396 79.9922 262.487C80.056 262.578 80.1517 262.654 80.2793 262.713V263H78.1602C78.1009 262.85 78.0599 262.708 78.0371 262.576C78.0143 262.444 77.9961 262.294 77.9824 262.125C77.7135 262.417 77.4036 262.665 77.0527 262.87C76.6335 263.112 76.1595 263.232 75.6309 263.232C74.9564 263.232 74.3981 263.041 73.9561 262.658C73.5186 262.271 73.2998 261.724 73.2998 261.018C73.2998 260.102 73.653 259.438 74.3594 259.028C74.7467 258.805 75.3164 258.646 76.0684 258.55L76.7314 258.468ZM86.0488 258.222C86.0124 257.944 85.9189 257.693 85.7686 257.47C85.5498 257.169 85.2103 257.019 84.75 257.019C84.0938 257.019 83.6449 257.344 83.4033 257.996C83.2757 258.342 83.2119 258.803 83.2119 259.377C83.2119 259.924 83.2757 260.364 83.4033 260.696C83.6357 261.316 84.0732 261.626 84.7158 261.626C85.1715 261.626 85.4951 261.503 85.6865 261.257C85.8779 261.011 85.9941 260.692 86.0352 260.3H88.0244C87.9788 260.892 87.7646 261.453 87.3818 261.981C86.7712 262.834 85.8665 263.26 84.668 263.26C83.4694 263.26 82.5876 262.904 82.0225 262.193C81.4574 261.482 81.1748 260.56 81.1748 259.425C81.1748 258.144 81.487 257.148 82.1113 256.438C82.7357 255.727 83.597 255.371 84.6953 255.371C85.6296 255.371 86.3929 255.581 86.9854 256C87.5824 256.419 87.9355 257.16 88.0449 258.222H86.0488ZM88.626 257.005V255.617H89.665V253.539H91.5928V255.617H92.8027V257.005H91.5928V260.942C91.5928 261.248 91.6315 261.439 91.709 261.517C91.7865 261.59 92.0234 261.626 92.4199 261.626C92.4792 261.626 92.5407 261.626 92.6045 261.626C92.6729 261.621 92.7389 261.617 92.8027 261.612V263.068L91.8799 263.103C90.9593 263.134 90.3304 262.975 89.9932 262.624C89.7744 262.401 89.665 262.057 89.665 261.592V257.005H88.626ZM105.559 254.708H100.227V256.848H105.121V258.598H100.227V261.188H105.805V263H98.1689V252.924H105.559V254.708ZM115.614 255.385C115.942 255.385 116.266 255.449 116.585 255.576C116.904 255.704 117.193 255.927 117.453 256.246C117.663 256.506 117.804 256.825 117.877 257.203C117.923 257.454 117.945 257.821 117.945 258.304L117.932 263H115.936V258.256C115.936 257.973 115.89 257.741 115.799 257.559C115.626 257.212 115.307 257.039 114.842 257.039C114.304 257.039 113.933 257.262 113.728 257.709C113.623 257.946 113.57 258.231 113.57 258.563V263H111.608V258.563C111.608 258.121 111.563 257.8 111.472 257.6C111.308 257.24 110.986 257.06 110.508 257.06C109.952 257.06 109.578 257.24 109.387 257.6C109.282 257.805 109.229 258.11 109.229 258.516V263H107.254V255.562H109.147V256.649C109.389 256.262 109.617 255.986 109.831 255.822C110.209 255.531 110.699 255.385 111.301 255.385C111.87 255.385 112.331 255.51 112.682 255.761C112.964 255.993 113.178 256.292 113.324 256.656C113.579 256.219 113.896 255.897 114.274 255.692C114.675 255.487 115.122 255.385 115.614 255.385ZM123.852 259.377C123.729 259.454 123.603 259.518 123.476 259.568C123.353 259.614 123.182 259.657 122.963 259.698L122.525 259.78C122.115 259.853 121.821 259.942 121.644 260.047C121.343 260.225 121.192 260.5 121.192 260.874C121.192 261.207 121.284 261.448 121.466 261.599C121.653 261.744 121.878 261.817 122.143 261.817C122.562 261.817 122.947 261.694 123.298 261.448C123.653 261.202 123.838 260.753 123.852 260.102V259.377ZM122.669 258.468C123.029 258.422 123.286 258.365 123.441 258.297C123.719 258.178 123.858 257.994 123.858 257.743C123.858 257.438 123.751 257.228 123.537 257.114C123.327 256.996 123.018 256.937 122.607 256.937C122.147 256.937 121.821 257.05 121.63 257.278C121.493 257.447 121.402 257.675 121.356 257.962H119.477C119.518 257.31 119.7 256.775 120.023 256.355C120.538 255.699 121.423 255.371 122.676 255.371C123.492 255.371 124.216 255.533 124.85 255.856C125.483 256.18 125.8 256.791 125.8 257.688V261.106C125.8 261.343 125.804 261.631 125.813 261.968C125.827 262.223 125.866 262.396 125.93 262.487C125.993 262.578 126.089 262.654 126.217 262.713V263H124.098C124.038 262.85 123.997 262.708 123.975 262.576C123.952 262.444 123.934 262.294 123.92 262.125C123.651 262.417 123.341 262.665 122.99 262.87C122.571 263.112 122.097 263.232 121.568 263.232C120.894 263.232 120.336 263.041 119.894 262.658C119.456 262.271 119.237 261.724 119.237 261.018C119.237 260.102 119.59 259.438 120.297 259.028C120.684 258.805 121.254 258.646 122.006 258.55L122.669 258.468ZM129.539 254.66H127.563V252.862H129.539V254.66ZM127.563 255.549H129.539V263H127.563V255.549ZM133.422 263H131.474V252.924H133.422V263Z" fill="#BFBFBF"/>
<rect id="Rectangle 10" x="42" y="121" width="175" height="18" fill="#E4E7E8" fill-opacity="0.36"/>
<rect id="Rectangle 11" x="41" y="179" width="302" height="57" fill="#E4E7E8" fill-opacity="0.36"/>
<path id="eventhelp@me.msk.sh" d="M56.498 294.367C55.8535 294.367 55.3522 294.569 54.9941 294.973C54.6426 295.376 54.4212 295.923 54.3301 296.613H58.6562C58.6107 295.878 58.3861 295.321 57.9824 294.943C57.5853 294.559 57.0905 294.367 56.498 294.367ZM56.498 292.072C57.3835 292.072 58.181 292.238 58.8906 292.57C59.6003 292.902 60.1862 293.426 60.6484 294.143C61.0651 294.774 61.3353 295.507 61.459 296.34C61.5306 296.828 61.5599 297.531 61.5469 298.449H54.2617C54.3008 299.517 54.6361 300.266 55.2676 300.695C55.6517 300.962 56.1139 301.096 56.6543 301.096C57.2272 301.096 57.6927 300.933 58.0508 300.607C58.2461 300.432 58.4186 300.188 58.5684 299.875H61.4102C61.3385 300.507 61.0098 301.148 60.4238 301.799C59.5124 302.834 58.2363 303.352 56.5957 303.352C55.2415 303.352 54.0469 302.915 53.0117 302.043C51.9766 301.171 51.459 299.751 51.459 297.785C51.459 295.943 51.9245 294.53 52.8555 293.547C53.793 292.564 55.0072 292.072 56.498 292.072ZM69.9941 292.355H72.9824L69.1445 303H66.2051L62.3867 292.355H65.5117L67.7285 300.207L69.9941 292.355ZM78.7637 294.367C78.1191 294.367 77.6178 294.569 77.2598 294.973C76.9082 295.376 76.6868 295.923 76.5957 296.613H80.9219C80.8763 295.878 80.6517 295.321 80.248 294.943C79.8509 294.559 79.3561 294.367 78.7637 294.367ZM78.7637 292.072C79.6491 292.072 80.4466 292.238 81.1562 292.57C81.8659 292.902 82.4518 293.426 82.9141 294.143C83.3307 294.774 83.6009 295.507 83.7246 296.34C83.7962 296.828 83.8255 297.531 83.8125 298.449H76.5273C76.5664 299.517 76.9017 300.266 77.5332 300.695C77.9173 300.962 78.3796 301.096 78.9199 301.096C79.4928 301.096 79.9583 300.933 80.3164 300.607C80.5117 300.432 80.6842 300.188 80.834 299.875H83.6758C83.6042 300.507 83.2754 301.148 82.6895 301.799C81.778 302.834 80.502 303.352 78.8613 303.352C77.5072 303.352 76.3125 302.915 75.2773 302.043C74.2422 301.171 73.7246 299.751 73.7246 297.785C73.7246 295.943 74.1901 294.53 75.1211 293.547C76.0586 292.564 77.2728 292.072 78.7637 292.072ZM91.5957 292.102C92.696 292.102 93.5944 292.391 94.291 292.971C94.9941 293.544 95.3457 294.497 95.3457 295.832V303H92.4941V296.525C92.4941 295.965 92.4193 295.536 92.2695 295.236C91.9961 294.689 91.4753 294.416 90.707 294.416C89.763 294.416 89.1152 294.816 88.7637 295.617C88.5814 296.04 88.4902 296.581 88.4902 297.238V303H85.7168V292.375H88.4023V293.928C88.7604 293.381 89.099 292.987 89.418 292.746C89.9909 292.316 90.7168 292.102 91.5957 292.102ZM96.8301 294.436V292.453H98.3145V289.484H101.068V292.453H102.797V294.436H101.068V300.061C101.068 300.497 101.124 300.77 101.234 300.881C101.345 300.985 101.684 301.037 102.25 301.037C102.335 301.037 102.423 301.037 102.514 301.037C102.611 301.031 102.706 301.024 102.797 301.018V303.098L101.479 303.146C100.163 303.192 99.265 302.964 98.7832 302.463C98.4707 302.144 98.3145 301.652 98.3145 300.988V294.436H96.8301ZM110.453 292.082C111.111 292.082 111.706 292.196 112.24 292.424C112.781 292.652 113.223 293 113.568 293.469C113.861 293.866 114.04 294.276 114.105 294.699C114.171 295.116 114.203 295.799 114.203 296.75V303H111.361V296.525C111.361 295.952 111.264 295.49 111.068 295.139C110.814 294.644 110.333 294.396 109.623 294.396C108.887 294.396 108.327 294.644 107.943 295.139C107.566 295.627 107.377 296.327 107.377 297.238V303H104.604V288.654H107.377V293.742C107.781 293.124 108.246 292.694 108.773 292.453C109.307 292.206 109.867 292.082 110.453 292.082ZM121.01 294.367C120.365 294.367 119.864 294.569 119.506 294.973C119.154 295.376 118.933 295.923 118.842 296.613H123.168C123.122 295.878 122.898 295.321 122.494 294.943C122.097 294.559 121.602 294.367 121.01 294.367ZM121.01 292.072C121.895 292.072 122.693 292.238 123.402 292.57C124.112 292.902 124.698 293.426 125.16 294.143C125.577 294.774 125.847 295.507 125.971 296.34C126.042 296.828 126.072 297.531 126.059 298.449H118.773C118.812 299.517 119.148 300.266 119.779 300.695C120.163 300.962 120.626 301.096 121.166 301.096C121.739 301.096 122.204 300.933 122.562 300.607C122.758 300.432 122.93 300.188 123.08 299.875H125.922C125.85 300.507 125.521 301.148 124.936 301.799C124.024 302.834 122.748 303.352 121.107 303.352C119.753 303.352 118.559 302.915 117.523 302.043C116.488 301.171 115.971 299.751 115.971 297.785C115.971 295.943 116.436 294.53 117.367 293.547C118.305 292.564 119.519 292.072 121.01 292.072ZM130.785 303H128.002V288.605H130.785V303ZM140.844 297.678C140.844 296.857 140.655 296.132 140.277 295.5C139.906 294.868 139.301 294.553 138.461 294.553C137.452 294.553 136.758 295.031 136.381 295.988C136.186 296.496 136.088 297.141 136.088 297.922C136.088 299.159 136.417 300.028 137.074 300.529C137.465 300.822 137.927 300.969 138.461 300.969C139.236 300.969 139.825 300.669 140.229 300.07C140.639 299.471 140.844 298.674 140.844 297.678ZM139.262 292.121C140.505 292.121 141.557 292.58 142.416 293.498C143.282 294.416 143.715 295.764 143.715 297.541C143.715 299.416 143.292 300.845 142.445 301.828C141.605 302.811 140.521 303.303 139.193 303.303C138.347 303.303 137.644 303.091 137.084 302.668C136.778 302.434 136.479 302.092 136.186 301.643V307.189H133.432V292.355H136.098V293.928C136.397 293.465 136.716 293.101 137.055 292.834C137.673 292.359 138.409 292.121 139.262 292.121ZM154.87 295.02C154.87 294.709 154.776 294.448 154.589 294.237C154.401 294.026 154.149 293.921 153.833 293.921C153.224 293.921 152.699 294.302 152.26 295.063C151.82 295.819 151.601 296.552 151.601 297.261C151.601 297.688 151.697 298.034 151.891 298.298C152.09 298.562 152.368 298.693 152.726 298.693C153.353 298.693 153.865 298.219 154.264 297.27C154.668 296.314 154.87 295.564 154.87 295.02ZM152.163 299.985C151.454 299.985 150.862 299.73 150.388 299.221C149.919 298.711 149.685 297.999 149.685 297.085C149.685 296.024 150.045 295.031 150.766 294.105C151.486 293.18 152.371 292.717 153.42 292.717C154.035 292.717 154.513 292.887 154.853 293.227C155.11 293.49 155.283 293.792 155.371 294.132L155.688 293.024H157.349L156.224 296.839C156.136 297.149 156.071 297.381 156.03 297.533C155.995 297.68 155.978 297.809 155.978 297.92C155.978 298.096 156.036 298.263 156.153 298.421C156.271 298.573 156.458 298.649 156.716 298.649C157.22 298.649 157.724 298.321 158.228 297.665C158.737 297.003 158.992 296.127 158.992 295.037C158.992 293.426 158.301 292.269 156.918 291.565C156.051 291.12 155.075 290.897 153.991 290.897C151.999 290.897 150.399 291.507 149.192 292.726C148.103 293.827 147.558 295.148 147.558 296.689C147.558 298.4 148.196 299.757 149.474 300.759C150.604 301.644 151.984 302.086 153.613 302.086C154.727 302.086 155.767 301.881 156.733 301.471C157.261 301.254 157.806 300.946 158.368 300.548L158.579 300.398L159.221 301.383C158.389 302.027 157.486 302.52 156.514 302.859C155.547 303.193 154.542 303.36 153.499 303.36C151.067 303.36 149.184 302.604 147.848 301.093C146.74 299.839 146.187 298.354 146.187 296.637C146.187 294.715 146.878 293.086 148.261 291.75C149.714 290.338 151.574 289.632 153.842 289.632C155.688 289.632 157.217 290.115 158.43 291.082C159.707 292.102 160.346 293.455 160.346 295.143C160.346 296.473 159.941 297.615 159.133 298.57C158.324 299.52 157.401 299.994 156.364 299.994C155.825 299.994 155.409 299.842 155.116 299.537C154.829 299.232 154.686 298.919 154.686 298.597C154.686 298.556 154.686 298.512 154.686 298.465C154.691 298.412 154.697 298.356 154.703 298.298C154.48 298.72 154.231 299.057 153.956 299.309C153.458 299.76 152.86 299.985 152.163 299.985ZM173.872 293.209C174.294 293.209 174.71 293.291 175.12 293.455C175.53 293.619 175.902 293.906 176.236 294.316C176.506 294.65 176.688 295.061 176.781 295.547C176.84 295.869 176.869 296.341 176.869 296.962L176.852 303H174.285V296.9C174.285 296.537 174.227 296.238 174.109 296.004C173.887 295.559 173.477 295.336 172.879 295.336C172.188 295.336 171.71 295.623 171.446 296.197C171.312 296.502 171.244 296.868 171.244 297.296V303H168.722V297.296C168.722 296.728 168.663 296.314 168.546 296.057C168.335 295.594 167.922 295.362 167.307 295.362C166.592 295.362 166.111 295.594 165.865 296.057C165.73 296.32 165.663 296.713 165.663 297.234V303H163.123V293.438H165.558V294.835C165.868 294.337 166.161 293.982 166.437 293.771C166.923 293.396 167.553 293.209 168.326 293.209C169.059 293.209 169.65 293.37 170.102 293.692C170.465 293.991 170.74 294.375 170.928 294.844C171.256 294.281 171.663 293.868 172.149 293.604C172.665 293.341 173.239 293.209 173.872 293.209ZM182.96 295.23C182.38 295.23 181.929 295.412 181.606 295.775C181.29 296.139 181.091 296.631 181.009 297.252H184.902C184.861 296.59 184.659 296.089 184.296 295.749C183.938 295.403 183.493 295.23 182.96 295.23ZM182.96 293.165C183.757 293.165 184.475 293.314 185.113 293.613C185.752 293.912 186.279 294.384 186.695 295.028C187.07 295.597 187.313 296.256 187.425 297.006C187.489 297.445 187.516 298.078 187.504 298.904H180.947C180.982 299.865 181.284 300.539 181.853 300.926C182.198 301.166 182.614 301.286 183.101 301.286C183.616 301.286 184.035 301.14 184.357 300.847C184.533 300.688 184.688 300.469 184.823 300.188H187.381C187.316 300.756 187.021 301.333 186.493 301.919C185.673 302.851 184.524 303.316 183.048 303.316C181.829 303.316 180.754 302.924 179.822 302.139C178.891 301.354 178.425 300.076 178.425 298.307C178.425 296.648 178.844 295.377 179.682 294.492C180.525 293.607 181.618 293.165 182.96 293.165ZM189.156 300.381H191.819V303H189.156V300.381ZM204.915 293.209C205.337 293.209 205.753 293.291 206.163 293.455C206.573 293.619 206.945 293.906 207.279 294.316C207.549 294.65 207.73 295.061 207.824 295.547C207.883 295.869 207.912 296.341 207.912 296.962L207.895 303H205.328V296.9C205.328 296.537 205.27 296.238 205.152 296.004C204.93 295.559 204.52 295.336 203.922 295.336C203.23 295.336 202.753 295.623 202.489 296.197C202.354 296.502 202.287 296.868 202.287 297.296V303H199.765V297.296C199.765 296.728 199.706 296.314 199.589 296.057C199.378 295.594 198.965 295.362 198.35 295.362C197.635 295.362 197.154 295.594 196.908 296.057C196.773 296.32 196.706 296.713 196.706 297.234V303H194.166V293.438H196.601V294.835C196.911 294.337 197.204 293.982 197.479 293.771C197.966 293.396 198.596 293.209 199.369 293.209C200.102 293.209 200.693 293.37 201.145 293.692C201.508 293.991 201.783 294.375 201.971 294.844C202.299 294.281 202.706 293.868 203.192 293.604C203.708 293.341 204.282 293.209 204.915 293.209ZM212.175 299.941C212.228 300.387 212.342 300.703 212.518 300.891C212.828 301.225 213.402 301.392 214.24 301.392C214.732 301.392 215.122 301.318 215.409 301.172C215.702 301.025 215.849 300.806 215.849 300.513C215.849 300.231 215.731 300.018 215.497 299.871C215.263 299.725 214.393 299.473 212.887 299.115C211.803 298.846 211.038 298.509 210.593 298.104C210.147 297.706 209.925 297.132 209.925 296.382C209.925 295.497 210.271 294.738 210.962 294.105C211.659 293.467 212.638 293.147 213.897 293.147C215.093 293.147 216.065 293.388 216.815 293.868C217.571 294.343 218.005 295.166 218.116 296.338H215.611C215.576 296.016 215.485 295.761 215.339 295.573C215.063 295.233 214.595 295.063 213.933 295.063C213.388 295.063 212.998 295.148 212.764 295.318C212.535 295.488 212.421 295.688 212.421 295.916C212.421 296.203 212.544 296.411 212.79 296.54C213.036 296.675 213.906 296.906 215.4 297.234C216.396 297.469 217.144 297.823 217.642 298.298C218.134 298.778 218.38 299.379 218.38 300.1C218.38 301.049 218.025 301.825 217.316 302.429C216.613 303.026 215.523 303.325 214.047 303.325C212.541 303.325 211.428 303.009 210.707 302.376C209.992 301.737 209.635 300.926 209.635 299.941H212.175ZM220.217 290.089H222.678V297.067L225.798 293.464H228.9L225.552 297.129L229.032 303H226.009L223.715 298.904L222.678 299.985V303H220.217V290.089ZM230.219 300.381H232.882V303H230.219V300.381ZM237.224 299.941C237.276 300.387 237.391 300.703 237.566 300.891C237.877 301.225 238.451 301.392 239.289 301.392C239.781 301.392 240.171 301.318 240.458 301.172C240.751 301.025 240.897 300.806 240.897 300.513C240.897 300.231 240.78 300.018 240.546 299.871C240.312 299.725 239.441 299.473 237.936 299.115C236.852 298.846 236.087 298.509 235.642 298.104C235.196 297.706 234.974 297.132 234.974 296.382C234.974 295.497 235.319 294.738 236.011 294.105C236.708 293.467 237.687 293.147 238.946 293.147C240.142 293.147 241.114 293.388 241.864 293.868C242.62 294.343 243.054 295.166 243.165 296.338H240.66C240.625 296.016 240.534 295.761 240.388 295.573C240.112 295.233 239.644 295.063 238.981 295.063C238.437 295.063 238.047 295.148 237.812 295.318C237.584 295.488 237.47 295.688 237.47 295.916C237.47 296.203 237.593 296.411 237.839 296.54C238.085 296.675 238.955 296.906 240.449 297.234C241.445 297.469 242.192 297.823 242.69 298.298C243.183 298.778 243.429 299.379 243.429 300.1C243.429 301.049 243.074 301.825 242.365 302.429C241.662 303.026 240.572 303.325 239.096 303.325C237.59 303.325 236.477 303.009 235.756 302.376C235.041 301.737 234.684 300.926 234.684 299.941H237.224ZM250.574 293.174C251.166 293.174 251.702 293.276 252.183 293.481C252.669 293.687 253.067 294 253.378 294.422C253.642 294.779 253.803 295.148 253.861 295.529C253.92 295.904 253.949 296.52 253.949 297.375V303H251.392V297.173C251.392 296.657 251.304 296.241 251.128 295.925C250.899 295.479 250.466 295.257 249.827 295.257C249.165 295.257 248.661 295.479 248.315 295.925C247.976 296.364 247.806 296.994 247.806 297.814V303H245.31V290.089H247.806V294.668C248.169 294.111 248.588 293.725 249.062 293.508C249.543 293.285 250.047 293.174 250.574 293.174Z" fill="#646464"/>
</g>
<defs>
<filter id="filter0_d" x="0" y="0" width="387" height="365" filterUnits="userSpaceOnUse" color-interpolation-filters="sRGB">
<feFlood flood-opacity="0" result="BackgroundImageFix"/>
<feColorMatrix in="SourceAlpha" type="matrix" values="0 0 0 0 0 0 0 0 0 0 0 0 0 0 0 0 0 0 127 0"/>
<feOffset dy="4"/>
<feGaussianBlur stdDeviation="10"/>
<feColorMatrix type="matrix" values="0 0 0 0 0 0 0 0 0 0 0 0 0 0 0 0 0 0 0.31 0"/>
<feBlend mode="normal" in2="BackgroundImageFix" result="effect1_dropShadow"/>
<feBlend mode="normal" in="SourceGraphic" in2="effect1_dropShadow" result="shape"/>
</filter>
</defs>
</svg>
