<svg width="352" height="325" viewBox="0 0 352 325" fill="none" xmlns="http://www.w3.org/2000/svg">
<g id="splash3" filter="url(#filter0_d)">
<g id="Group 4">
<g id="Rectangle 8" filter="url(#filter1_d)">
<path d="M20 52C20 49.2386 22.2386 47 25 47H206C208.761 47 211 49.2386 211 52V84C211 86.7614 208.761 89 206 89H25C22.2386 89 20 86.7614 20 84V52Z" fill="white"/>
<path d="M20.5 52C20.5 49.5147 22.5147 47.5 25 47.5H206C208.485 47.5 210.5 49.5147 210.5 52V84C210.5 86.4853 208.485 88.5 206 88.5H25C22.5147 88.5 20.5 86.4853 20.5 84V52Z" stroke="#BBBBBB"/>
</g>
<g id="Ivy: Hey, it was good meeting you earlier.">
<path d="M31.6617 63.7273H29.8687L31.7027 55.0906H33.4956L31.6617 63.7273ZM38.5054 57.3406H40.2984L36.6421 63.7273H34.8784L33.9409 57.3406H35.8159L36.1441 62.0515L38.5054 57.3406ZM39.8882 64.9519L40.0992 64.9636C40.2593 64.9714 40.4156 64.9656 40.5679 64.946C40.7202 64.9265 40.855 64.8816 40.9722 64.8113C41.0855 64.7449 41.2066 64.6062 41.3355 64.3953C41.4644 64.1843 41.5249 64.0554 41.5171 64.0085L40.5913 57.3406H42.4488L42.8413 62.0515L45.1617 57.3406H46.937L43.4097 63.6218C42.73 64.8328 42.2359 65.5828 41.9273 65.8718C41.6226 66.1648 41.1011 66.3113 40.3628 66.3113C40.2144 66.3113 40.0952 66.3093 40.0054 66.3054C39.9156 66.3054 39.7827 66.2996 39.607 66.2878L39.8882 64.9519ZM48.4546 57.5925H50.23L49.8609 59.3386H48.0855L48.4546 57.5925ZM47.523 61.9812H49.2984L48.9292 63.7273H47.1538L47.523 61.9812Z" fill="#BEBEBE"/>
<path d="M54.0327 63.7273V55.0906H55.8199V58.3835H59.1949V55.0906H60.9878V63.7273H59.1949V59.8718H55.8199V63.7273H54.0327ZM65.1011 58.5476C64.7144 58.5476 64.4136 58.6687 64.1988 58.9109C63.9878 59.1531 63.855 59.4812 63.8003 59.8953H66.396C66.3687 59.4539 66.2339 59.1199 65.9917 58.8933C65.7534 58.6628 65.4566 58.5476 65.1011 58.5476ZM65.1011 57.1707C65.6324 57.1707 66.1109 57.2703 66.5367 57.4695C66.9624 57.6687 67.314 57.9832 67.5913 58.4128C67.8413 58.7917 68.0034 59.2312 68.0777 59.7312C68.1206 60.0242 68.1382 60.446 68.1304 60.9968H63.7593C63.7827 61.6375 63.9839 62.0867 64.3628 62.3445C64.5933 62.5046 64.8706 62.5847 65.1949 62.5847C65.5386 62.5847 65.8179 62.4871 66.0327 62.2917C66.1499 62.1863 66.2534 62.0398 66.3433 61.8523H68.0484C68.0054 62.2312 67.8081 62.616 67.4566 63.0066C66.9097 63.6277 66.1441 63.9382 65.1597 63.9382C64.3472 63.9382 63.6304 63.6765 63.0093 63.1531C62.3882 62.6296 62.0777 61.7781 62.0777 60.5984C62.0777 59.4929 62.357 58.6453 62.9156 58.0554C63.4781 57.4656 64.2066 57.1707 65.1011 57.1707ZM69.5191 64.9519L69.73 64.9636C69.8941 64.9714 70.0503 64.9656 70.1988 64.946C70.3472 64.9265 70.4722 64.8816 70.5738 64.8113C70.6714 64.7449 70.7613 64.6062 70.8433 64.3953C70.9292 64.1843 70.9644 64.0554 70.9488 64.0085L68.605 57.3406H70.4624L71.857 62.0515L73.1753 57.3406H74.9507L72.7593 63.6218C72.3374 64.8328 72.0034 65.5828 71.7574 65.8718C71.5113 66.1648 71.0191 66.3113 70.2808 66.3113C70.1324 66.3113 70.0132 66.3093 69.9234 66.3054C69.8335 66.3054 69.6988 66.2996 69.5191 66.2878V64.9519ZM74.9624 65.116C75.2984 65.0222 75.5445 64.866 75.7007 64.6472C75.8609 64.4285 75.9527 64.1218 75.9761 63.7273H74.9624V61.9812H76.7671V63.4929C76.7671 63.7585 76.732 64.0359 76.6617 64.325C76.5913 64.614 76.4605 64.864 76.2691 65.075C76.062 65.3015 75.8179 65.4714 75.5367 65.5847C75.2593 65.7019 75.0679 65.7605 74.9624 65.7605V65.116ZM83.4468 56.5789H81.7534V55.0378H83.4468V56.5789ZM81.7534 57.3406H83.4468V63.7273H81.7534V57.3406ZM84.4136 58.5886V57.3992H85.3042V55.6179H86.9566V57.3992H87.9937V58.5886H86.9566V61.9636C86.9566 62.2253 86.9898 62.3894 87.0562 62.4558C87.1226 62.5183 87.3257 62.5496 87.6656 62.5496C87.7163 62.5496 87.7691 62.5496 87.8238 62.5496C87.8824 62.5457 87.939 62.5417 87.9937 62.5378V63.7859L87.2027 63.8152C86.4136 63.8425 85.8745 63.7058 85.5855 63.405C85.398 63.2136 85.3042 62.9187 85.3042 62.5203V58.5886H84.4136ZM95.4175 57.3406H97.1109L98.0835 61.9402L99.0796 57.3406H100.82L98.9683 63.7273H97.2515L96.2495 59.075L95.2359 63.7273H93.5015L91.7085 57.3406H93.5015L94.4976 61.9226L95.4175 57.3406ZM105.267 60.6218C105.162 60.6882 105.054 60.7429 104.945 60.7859C104.839 60.825 104.693 60.8621 104.505 60.8972L104.13 60.9675C103.779 61.03 103.527 61.1062 103.375 61.196C103.117 61.3484 102.988 61.5847 102.988 61.905C102.988 62.1902 103.066 62.3972 103.222 62.5261C103.382 62.6511 103.576 62.7136 103.802 62.7136C104.162 62.7136 104.492 62.6082 104.793 62.3972C105.097 62.1863 105.255 61.8015 105.267 61.2429V60.6218ZM104.253 59.8425C104.562 59.8035 104.783 59.7546 104.916 59.696C105.154 59.5945 105.273 59.4363 105.273 59.2214C105.273 58.9597 105.181 58.78 104.998 58.6824C104.818 58.5808 104.552 58.53 104.201 58.53C103.806 58.53 103.527 58.6277 103.363 58.823C103.246 58.9675 103.168 59.1628 103.128 59.4089H101.517C101.552 58.8503 101.709 58.3914 101.986 58.032C102.427 57.4695 103.185 57.1882 104.259 57.1882C104.959 57.1882 105.58 57.3269 106.123 57.6042C106.666 57.8816 106.937 58.405 106.937 59.1746V62.1042C106.937 62.3074 106.941 62.5535 106.949 62.8425C106.96 63.0613 106.994 63.2097 107.048 63.2878C107.103 63.366 107.185 63.4304 107.294 63.4812V63.7273H105.478C105.427 63.5984 105.392 63.4773 105.373 63.364C105.353 63.2507 105.337 63.1218 105.326 62.9773C105.095 63.2273 104.83 63.4402 104.529 63.616C104.169 63.823 103.763 63.9265 103.31 63.9265C102.732 63.9265 102.253 63.7625 101.875 63.4343C101.5 63.1023 101.312 62.6335 101.312 62.0281C101.312 61.2429 101.615 60.6746 102.22 60.323C102.552 60.1316 103.041 59.9949 103.685 59.9128L104.253 59.8425ZM109.726 61.6882C109.761 61.9851 109.837 62.196 109.955 62.321C110.162 62.5437 110.544 62.655 111.103 62.655C111.431 62.655 111.691 62.6062 111.882 62.5085C112.078 62.4109 112.175 62.2644 112.175 62.0691C112.175 61.8816 112.097 61.739 111.941 61.6414C111.785 61.5437 111.205 61.3757 110.201 61.1375C109.478 60.9578 108.968 60.7332 108.671 60.4636C108.375 60.198 108.226 59.8152 108.226 59.3152C108.226 58.7253 108.457 58.2195 108.918 57.7976C109.382 57.3718 110.035 57.1589 110.875 57.1589C111.671 57.1589 112.32 57.3191 112.82 57.6394C113.324 57.9558 113.613 58.5046 113.687 59.2859H112.017C111.994 59.071 111.933 58.9011 111.835 58.7761C111.652 58.5496 111.339 58.4363 110.898 58.4363C110.535 58.4363 110.275 58.4929 110.119 58.6062C109.966 58.7195 109.89 58.8523 109.89 59.0046C109.89 59.196 109.972 59.3347 110.136 59.4207C110.3 59.5105 110.88 59.6648 111.876 59.8835C112.541 60.0398 113.039 60.2761 113.371 60.5925C113.699 60.9128 113.863 61.3132 113.863 61.7937C113.863 62.4265 113.626 62.9441 113.154 63.3464C112.685 63.7449 111.959 63.9441 110.974 63.9441C109.97 63.9441 109.228 63.7332 108.748 63.3113C108.271 62.8855 108.033 62.3445 108.033 61.6882H109.726ZM121.187 62.3562C121.578 62.3562 121.908 62.2097 122.177 61.9167C122.447 61.6199 122.582 61.1492 122.582 60.5046C122.582 59.8992 122.453 59.4382 122.195 59.1218C121.941 58.8054 121.599 58.6472 121.169 58.6472C120.584 58.6472 120.179 58.9226 119.957 59.4734C119.839 59.7664 119.781 60.1277 119.781 60.5574C119.781 60.9285 119.843 61.2585 119.968 61.5476C120.195 62.0867 120.601 62.3562 121.187 62.3562ZM120.771 57.1882C121.091 57.1882 121.371 57.2371 121.609 57.3347C122.015 57.5027 122.343 57.8113 122.593 58.2605V57.3406H124.216V63.3992C124.216 64.2234 124.078 64.8445 123.8 65.2625C123.324 65.9812 122.41 66.3406 121.058 66.3406C120.242 66.3406 119.576 66.1804 119.06 65.8601C118.544 65.5398 118.259 65.0613 118.205 64.4246H120.021C120.068 64.6199 120.144 64.7605 120.25 64.8464C120.429 64.9988 120.732 65.075 121.158 65.075C121.759 65.075 122.162 64.8738 122.365 64.4714C122.498 64.2136 122.564 63.78 122.564 63.1707V62.7605C122.404 63.0339 122.232 63.239 122.048 63.3757C121.716 63.6296 121.285 63.7566 120.753 63.7566C119.933 63.7566 119.277 63.4695 118.785 62.8953C118.296 62.3171 118.052 61.5359 118.052 60.5515C118.052 59.6023 118.289 58.8054 118.761 58.1609C119.234 57.5125 119.904 57.1882 120.771 57.1882ZM128.646 62.5496C129.134 62.5496 129.509 62.3757 129.771 62.0281C130.033 61.6804 130.164 61.1863 130.164 60.5457C130.164 59.905 130.033 59.4128 129.771 59.0691C129.509 58.7214 129.134 58.5476 128.646 58.5476C128.158 58.5476 127.781 58.7214 127.515 59.0691C127.253 59.4128 127.123 59.905 127.123 60.5457C127.123 61.1863 127.253 61.6804 127.515 62.0281C127.781 62.3757 128.158 62.5496 128.646 62.5496ZM131.916 60.5457C131.916 61.4832 131.646 62.2859 131.107 62.9539C130.568 63.6179 129.75 63.95 128.652 63.95C127.554 63.95 126.736 63.6179 126.197 62.9539C125.658 62.2859 125.388 61.4832 125.388 60.5457C125.388 59.6238 125.658 58.825 126.197 58.1492C126.736 57.4734 127.554 57.1355 128.652 57.1355C129.75 57.1355 130.568 57.4734 131.107 58.1492C131.646 58.825 131.916 59.6238 131.916 60.5457ZM135.982 62.5496C136.47 62.5496 136.845 62.3757 137.107 62.0281C137.369 61.6804 137.5 61.1863 137.5 60.5457C137.5 59.905 137.369 59.4128 137.107 59.0691C136.845 58.7214 136.47 58.5476 135.982 58.5476C135.494 58.5476 135.117 58.7214 134.851 59.0691C134.589 59.4128 134.459 59.905 134.459 60.5457C134.459 61.1863 134.589 61.6804 134.851 62.0281C135.117 62.3757 135.494 62.5496 135.982 62.5496ZM139.251 60.5457C139.251 61.4832 138.982 62.2859 138.443 62.9539C137.904 63.6179 137.085 63.95 135.988 63.95C134.89 63.95 134.072 63.6179 133.533 62.9539C132.994 62.2859 132.724 61.4832 132.724 60.5457C132.724 59.6238 132.994 58.825 133.533 58.1492C134.072 57.4734 134.89 57.1355 135.988 57.1355C137.085 57.1355 137.904 57.4734 138.443 58.1492C138.982 58.825 139.251 59.6238 139.251 60.5457ZM142.808 57.1882C143.195 57.1882 143.539 57.2742 143.839 57.446C144.14 57.614 144.384 57.8484 144.572 58.1492V55.1023H146.265V63.7273H144.642V62.8425C144.404 63.2214 144.132 63.4968 143.828 63.6687C143.523 63.8406 143.144 63.9265 142.691 63.9265C141.945 63.9265 141.316 63.6257 140.804 63.0242C140.296 62.4187 140.043 61.6433 140.043 60.698C140.043 59.6082 140.293 58.7507 140.793 58.1257C141.296 57.5007 141.968 57.1882 142.808 57.1882ZM143.171 62.5203C143.644 62.5203 144.003 62.3445 144.25 61.9929C144.496 61.6414 144.619 61.1863 144.619 60.6277C144.619 59.8464 144.421 59.2878 144.027 58.9519C143.785 58.7488 143.503 58.6472 143.183 58.6472C142.695 58.6472 142.335 58.8328 142.105 59.2039C141.878 59.571 141.765 60.0281 141.765 60.575C141.765 61.1648 141.88 61.6375 142.111 61.9929C142.345 62.3445 142.699 62.5203 143.171 62.5203ZM158.265 57.2C158.546 57.2 158.824 57.2546 159.097 57.364C159.371 57.4734 159.619 57.6648 159.841 57.9382C160.021 58.1609 160.142 58.4343 160.205 58.7585C160.244 58.9734 160.263 59.2878 160.263 59.7019L160.251 63.7273H158.541V59.6609C158.541 59.4187 158.501 59.2195 158.423 59.0632C158.275 58.7664 158.001 58.6179 157.603 58.6179C157.142 58.6179 156.824 58.8093 156.648 59.1921C156.558 59.3953 156.513 59.6394 156.513 59.9246V63.7273H154.832V59.9246C154.832 59.5457 154.793 59.2703 154.714 59.0984C154.574 58.7898 154.298 58.6355 153.888 58.6355C153.412 58.6355 153.091 58.7898 152.927 59.0984C152.837 59.2742 152.793 59.5359 152.793 59.8835V63.7273H151.099V57.3523H152.722V58.2839C152.929 57.9519 153.125 57.7156 153.308 57.575C153.632 57.325 154.052 57.2 154.568 57.2C155.056 57.2 155.451 57.3074 155.751 57.5222C155.994 57.7214 156.177 57.9773 156.302 58.2898C156.521 57.9148 156.793 57.6394 157.117 57.4636C157.46 57.2878 157.843 57.2 158.265 57.2ZM164.324 58.5476C163.937 58.5476 163.636 58.6687 163.421 58.9109C163.21 59.1531 163.078 59.4812 163.023 59.8953H165.619C165.591 59.4539 165.457 59.1199 165.214 58.8933C164.976 58.6628 164.679 58.5476 164.324 58.5476ZM164.324 57.1707C164.855 57.1707 165.334 57.2703 165.759 57.4695C166.185 57.6687 166.537 57.9832 166.814 58.4128C167.064 58.7917 167.226 59.2312 167.3 59.7312C167.343 60.0242 167.361 60.446 167.353 60.9968H162.982C163.005 61.6375 163.207 62.0867 163.585 62.3445C163.816 62.5046 164.093 62.5847 164.418 62.5847C164.761 62.5847 165.041 62.4871 165.255 62.2917C165.373 62.1863 165.476 62.0398 165.566 61.8523H167.271C167.228 62.2312 167.031 62.616 166.679 63.0066C166.132 63.6277 165.367 63.9382 164.382 63.9382C163.57 63.9382 162.853 63.6765 162.232 63.1531C161.611 62.6296 161.3 61.7781 161.3 60.5984C161.3 59.4929 161.58 58.6453 162.138 58.0554C162.701 57.4656 163.429 57.1707 164.324 57.1707ZM171.003 58.5476C170.617 58.5476 170.316 58.6687 170.101 58.9109C169.89 59.1531 169.757 59.4812 169.703 59.8953H172.298C172.271 59.4539 172.136 59.1199 171.894 58.8933C171.656 58.6628 171.359 58.5476 171.003 58.5476ZM171.003 57.1707C171.535 57.1707 172.013 57.2703 172.439 57.4695C172.865 57.6687 173.216 57.9832 173.494 58.4128C173.744 58.7917 173.906 59.2312 173.98 59.7312C174.023 60.0242 174.041 60.446 174.033 60.9968H169.662C169.685 61.6375 169.886 62.0867 170.265 62.3445C170.496 62.5046 170.773 62.5847 171.097 62.5847C171.441 62.5847 171.72 62.4871 171.935 62.2917C172.052 62.1863 172.156 62.0398 172.246 61.8523H173.951C173.908 62.2312 173.71 62.616 173.359 63.0066C172.812 63.6277 172.046 63.9382 171.062 63.9382C170.25 63.9382 169.533 63.6765 168.912 63.1531C168.291 62.6296 167.98 61.7781 167.98 60.5984C167.98 59.4929 168.259 58.6453 168.818 58.0554C169.38 57.4656 170.109 57.1707 171.003 57.1707ZM174.507 58.5886V57.3992H175.398V55.6179H177.05V57.3992H178.087V58.5886H177.05V61.9636C177.05 62.2253 177.084 62.3894 177.15 62.4558C177.216 62.5183 177.419 62.5496 177.759 62.5496C177.81 62.5496 177.863 62.5496 177.918 62.5496C177.976 62.5457 178.033 62.5417 178.087 62.5378V63.7859L177.296 63.8152C176.507 63.8425 175.968 63.7058 175.679 63.405C175.492 63.2136 175.398 62.9187 175.398 62.5203V58.5886H174.507ZM180.876 56.5789H179.183V55.0378H180.876V56.5789ZM179.183 57.3406H180.876V63.7273H179.183V57.3406ZM186.039 57.1882C186.699 57.1882 187.238 57.3621 187.656 57.7097C188.078 58.0535 188.289 58.6257 188.289 59.4265V63.7273H186.578V59.8425C186.578 59.5066 186.533 59.2488 186.443 59.0691C186.279 58.741 185.966 58.5769 185.505 58.5769C184.939 58.5769 184.55 58.8171 184.339 59.2976C184.23 59.5515 184.175 59.8757 184.175 60.2703V63.7273H182.511V57.3523H184.123V58.2839C184.337 57.9558 184.541 57.7195 184.732 57.575C185.076 57.3171 185.511 57.1882 186.039 57.1882ZM192.578 62.3562C192.968 62.3562 193.298 62.2097 193.568 61.9167C193.837 61.6199 193.972 61.1492 193.972 60.5046C193.972 59.8992 193.843 59.4382 193.585 59.1218C193.332 58.8054 192.99 58.6472 192.56 58.6472C191.974 58.6472 191.57 58.9226 191.347 59.4734C191.23 59.7664 191.171 60.1277 191.171 60.5574C191.171 60.9285 191.234 61.2585 191.359 61.5476C191.585 62.0867 191.992 62.3562 192.578 62.3562ZM192.162 57.1882C192.482 57.1882 192.761 57.2371 193 57.3347C193.406 57.5027 193.734 57.8113 193.984 58.2605V57.3406H195.607V63.3992C195.607 64.2234 195.468 64.8445 195.191 65.2625C194.714 65.9812 193.8 66.3406 192.449 66.3406C191.632 66.3406 190.966 66.1804 190.451 65.8601C189.935 65.5398 189.65 65.0613 189.595 64.4246H191.412C191.459 64.6199 191.535 64.7605 191.64 64.8464C191.82 64.9988 192.123 65.075 192.548 65.075C193.15 65.075 193.552 64.8738 193.755 64.4714C193.888 64.2136 193.955 63.78 193.955 63.1707V62.7605C193.794 63.0339 193.623 63.239 193.439 63.3757C193.107 63.6296 192.675 63.7566 192.144 63.7566C191.324 63.7566 190.668 63.4695 190.175 62.8953C189.687 62.3171 189.443 61.5359 189.443 60.5515C189.443 59.6023 189.679 58.8054 190.152 58.1609C190.625 57.5125 191.294 57.1882 192.162 57.1882ZM30.1324 78.9519L30.3433 78.9636C30.5074 78.9714 30.6636 78.9656 30.812 78.946C30.9605 78.9265 31.0855 78.8816 31.187 78.8113C31.2847 78.7449 31.3745 78.6062 31.4566 78.3953C31.5425 78.1843 31.5777 78.0554 31.562 78.0085L29.2183 71.3406H31.0757L32.4702 76.0515L33.7886 71.3406H35.564L33.3726 77.6218C32.9507 78.8328 32.6167 79.5828 32.3706 79.8718C32.1245 80.1648 31.6324 80.3113 30.8941 80.3113C30.7456 80.3113 30.6265 80.3093 30.5367 80.3054C30.4468 80.3054 30.312 80.2996 30.1324 80.2878V78.9519ZM39.4195 76.5496C39.9077 76.5496 40.2827 76.3757 40.5445 76.0281C40.8062 75.6804 40.937 75.1863 40.937 74.5457C40.937 73.905 40.8062 73.4128 40.5445 73.0691C40.2827 72.7214 39.9077 72.5476 39.4195 72.5476C38.9312 72.5476 38.5542 72.7214 38.2886 73.0691C38.0269 73.4128 37.896 73.905 37.896 74.5457C37.896 75.1863 38.0269 75.6804 38.2886 76.0281C38.5542 76.3757 38.9312 76.5496 39.4195 76.5496ZM42.689 74.5457C42.689 75.4832 42.4195 76.2859 41.8804 76.9539C41.3413 77.6179 40.523 77.95 39.4253 77.95C38.3277 77.95 37.5093 77.6179 36.9702 76.9539C36.4312 76.2859 36.1617 75.4832 36.1617 74.5457C36.1617 73.6238 36.4312 72.825 36.9702 72.1492C37.5093 71.4734 38.3277 71.1355 39.4253 71.1355C40.523 71.1355 41.3413 71.4734 41.8804 72.1492C42.4195 72.825 42.689 73.6238 42.689 74.5457ZM45.5542 71.3406V75.1902C45.5542 75.5535 45.5972 75.8269 45.6831 76.0105C45.8355 76.3347 46.1343 76.4968 46.5796 76.4968C47.1499 76.4968 47.5406 76.2664 47.7515 75.8054C47.8609 75.5554 47.9156 75.2253 47.9156 74.8152V71.3406H49.6089V77.7273H47.9859V76.825C47.9702 76.8445 47.9312 76.9031 47.8687 77.0007C47.8062 77.0984 47.732 77.1843 47.646 77.2585C47.3843 77.4929 47.1304 77.6531 46.8843 77.739C46.6421 77.825 46.357 77.8679 46.0288 77.8679C45.0835 77.8679 44.4468 77.5281 44.1187 76.8484C43.9351 76.4734 43.8433 75.9207 43.8433 75.1902V71.3406H45.5542ZM57.0855 72.5476C56.6988 72.5476 56.398 72.6687 56.1831 72.9109C55.9722 73.1531 55.8394 73.4812 55.7847 73.8953H58.3804C58.3531 73.4539 58.2183 73.1199 57.9761 72.8933C57.7378 72.6628 57.4409 72.5476 57.0855 72.5476ZM57.0855 71.1707C57.6167 71.1707 58.0952 71.2703 58.521 71.4695C58.9468 71.6687 59.2984 71.9832 59.5757 72.4128C59.8257 72.7917 59.9878 73.2312 60.062 73.7312C60.105 74.0242 60.1226 74.446 60.1148 74.9968H55.7437C55.7671 75.6375 55.9683 76.0867 56.3472 76.3445C56.5777 76.5046 56.855 76.5847 57.1792 76.5847C57.523 76.5847 57.8023 76.4871 58.0171 76.2917C58.1343 76.1863 58.2378 76.0398 58.3277 75.8523H60.0327C59.9898 76.2312 59.7925 76.616 59.4409 77.0066C58.8941 77.6277 58.1284 77.9382 57.1441 77.9382C56.3316 77.9382 55.6148 77.6765 54.9937 77.1531C54.3726 76.6296 54.062 75.7781 54.062 74.5984C54.062 73.4929 54.3413 72.6453 54.8999 72.0554C55.4624 71.4656 56.1909 71.1707 57.0855 71.1707ZM64.7671 74.6218C64.6617 74.6882 64.5542 74.7429 64.4449 74.7859C64.3394 74.825 64.1929 74.8621 64.0054 74.8972L63.6304 74.9675C63.2788 75.03 63.0269 75.1062 62.8745 75.196C62.6167 75.3484 62.4878 75.5847 62.4878 75.905C62.4878 76.1902 62.5659 76.3972 62.7222 76.5261C62.8824 76.6511 63.0757 76.7136 63.3023 76.7136C63.6617 76.7136 63.9917 76.6082 64.2925 76.3972C64.5972 76.1863 64.7554 75.8015 64.7671 75.2429V74.6218ZM63.7534 73.8425C64.062 73.8035 64.2827 73.7546 64.4156 73.696C64.6538 73.5945 64.773 73.4363 64.773 73.2214C64.773 72.9597 64.6812 72.78 64.4976 72.6824C64.3179 72.5808 64.0523 72.53 63.7007 72.53C63.3062 72.53 63.0269 72.6277 62.8628 72.823C62.7456 72.9675 62.6675 73.1628 62.6284 73.4089H61.0171C61.0523 72.8503 61.2085 72.3914 61.4859 72.032C61.9273 71.4695 62.6851 71.1882 63.7593 71.1882C64.4585 71.1882 65.0796 71.3269 65.6226 71.6042C66.1656 71.8816 66.437 72.405 66.437 73.1746V76.1042C66.437 76.3074 66.4409 76.5535 66.4488 76.8425C66.4605 77.0613 66.4937 77.2097 66.5484 77.2878C66.6031 77.366 66.6851 77.4304 66.7945 77.4812V77.7273H64.9781C64.9273 77.5984 64.8921 77.4773 64.8726 77.364C64.8531 77.2507 64.8374 77.1218 64.8257 76.9773C64.5952 77.2273 64.3296 77.4402 64.0288 77.616C63.6695 77.823 63.2632 77.9265 62.8101 77.9265C62.232 77.9265 61.7534 77.7625 61.3745 77.4343C60.9995 77.1023 60.812 76.6335 60.812 76.0281C60.812 75.2429 61.1148 74.6746 61.7202 74.323C62.0523 74.1316 62.5406 73.9949 63.1851 73.9128L63.7534 73.8425ZM71.3941 71.1882C71.4253 71.1882 71.4507 71.1902 71.4702 71.1941C71.4937 71.1941 71.5425 71.196 71.6167 71.2V72.9109C71.5113 72.8992 71.4175 72.8914 71.3355 72.8875C71.2534 72.8835 71.187 72.8816 71.1363 72.8816C70.4644 72.8816 70.0132 73.1003 69.7827 73.5378C69.6538 73.7839 69.5894 74.1628 69.5894 74.6746V77.7273H67.9077V71.3406H69.5015V72.4539C69.7593 72.0281 69.9839 71.7371 70.1753 71.5808C70.4878 71.3191 70.8941 71.1882 71.3941 71.1882ZM74.3062 77.7273H72.6363V69.0906H74.3062V77.7273ZM77.6577 70.5789H75.9644V69.0378H77.6577V70.5789ZM75.9644 71.3406H77.6577V77.7273H75.9644V71.3406ZM81.8003 72.5476C81.4136 72.5476 81.1128 72.6687 80.898 72.9109C80.687 73.1531 80.5542 73.4812 80.4995 73.8953H83.0952C83.0679 73.4539 82.9331 73.1199 82.6909 72.8933C82.4527 72.6628 82.1558 72.5476 81.8003 72.5476ZM81.8003 71.1707C82.3316 71.1707 82.8101 71.2703 83.2359 71.4695C83.6617 71.6687 84.0132 71.9832 84.2906 72.4128C84.5406 72.7917 84.7027 73.2312 84.7769 73.7312C84.8199 74.0242 84.8374 74.446 84.8296 74.9968H80.4585C80.482 75.6375 80.6831 76.0867 81.062 76.3445C81.2925 76.5046 81.5699 76.5847 81.8941 76.5847C82.2378 76.5847 82.5171 76.4871 82.732 76.2917C82.8492 76.1863 82.9527 76.0398 83.0425 75.8523H84.7476C84.7046 76.2312 84.5074 76.616 84.1558 77.0066C83.6089 77.6277 82.8433 77.9382 81.8589 77.9382C81.0464 77.9382 80.3296 77.6765 79.7085 77.1531C79.0874 76.6296 78.7769 75.7781 78.7769 74.5984C78.7769 73.4929 79.0562 72.6453 79.6148 72.0554C80.1773 71.4656 80.9058 71.1707 81.8003 71.1707ZM89.4292 71.1882C89.4605 71.1882 89.4859 71.1902 89.5054 71.1941C89.5288 71.1941 89.5777 71.196 89.6519 71.2V72.9109C89.5464 72.8992 89.4527 72.8914 89.3706 72.8875C89.2886 72.8835 89.2222 72.8816 89.1714 72.8816C88.4995 72.8816 88.0484 73.1003 87.8179 73.5378C87.689 73.7839 87.6245 74.1628 87.6245 74.6746V77.7273H85.9429V71.3406H87.5367V72.4539C87.7945 72.0281 88.0191 71.7371 88.2105 71.5808C88.523 71.3191 88.9292 71.1882 89.4292 71.1882ZM89.9507 75.9812H91.7261V77.7273H89.9507V75.9812Z" fill="#5F5F5F"/>
</g>
</g>
<g id="Group 3">
<g id="Rectangle 10" filter="url(#filter2_d)">
<path d="M20 177C20 174.239 22.2386 172 25 172H216C218.761 172 221 174.239 221 177V193C221 195.761 218.761 198 216 198H25C22.2386 198 20 195.761 20 193V177Z" fill="white"/>
<path d="M20.5 177C20.5 174.515 22.5147 172.5 25 172.5H216C218.485 172.5 220.5 174.515 220.5 177V193C220.5 195.485 218.485 197.5 216 197.5H25C22.5147 197.5 20.5 195.485 20.5 193V177Z" stroke="#BBBBBB"/>
</g>
<g id="Ivy: What&#226;&#128;&#153;s your email?">
<path d="M32.1378 189H30.3449L32.1788 180.363H33.9718L32.1378 189ZM38.9816 182.613H40.7746L37.1183 189H35.3546L34.4171 182.613H36.2921L36.6203 187.324L38.9816 182.613ZM40.3644 190.225L40.5753 190.236C40.7355 190.244 40.8917 190.238 41.0441 190.219C41.1964 190.199 41.3312 190.154 41.4484 190.084C41.5617 190.018 41.6828 189.879 41.8117 189.668C41.9406 189.457 42.0011 189.328 41.9933 189.281L41.0675 182.613H42.9249L43.3175 187.324L45.6378 182.613H47.4132L43.8859 188.895C43.2062 190.105 42.7121 190.855 42.4035 191.145C42.0988 191.438 41.5773 191.584 40.839 191.584C40.6906 191.584 40.5714 191.582 40.4816 191.578C40.3917 191.578 40.2589 191.572 40.0831 191.561L40.3644 190.225ZM48.9308 182.865H50.7062L50.3371 184.611H48.5617L48.9308 182.865ZM47.9992 187.254H49.7746L49.4054 189H47.63L47.9992 187.254Z" fill="#BEBEBE"/>
<path d="M55.6984 180.363L56.841 185.309L57.0871 186.686L57.339 185.338L58.3117 180.363H60.216L61.2413 185.309L61.505 186.686L61.7687 185.361L62.923 180.363H64.757L62.3253 189H60.6027L59.5597 183.949L59.255 182.279L58.9503 183.949L57.9074 189H56.2316L53.7824 180.363H55.6984ZM69.2394 182.449C69.6339 182.449 69.9913 182.518 70.3117 182.654C70.6359 182.791 70.9015 183 71.1085 183.281C71.2843 183.52 71.3917 183.766 71.4308 184.02C71.4699 184.27 71.4894 184.68 71.4894 185.25V189H69.7843V185.115C69.7843 184.771 69.7257 184.494 69.6085 184.283C69.4562 183.986 69.1671 183.838 68.7413 183.838C68.2999 183.838 67.964 183.986 67.7335 184.283C67.507 184.576 67.3937 184.996 67.3937 185.543V189H65.7296V180.393H67.3937V183.445C67.6359 183.074 67.9152 182.816 68.2316 182.672C68.5519 182.523 68.8878 182.449 69.2394 182.449ZM76.5753 185.895C76.4699 185.961 76.3624 186.016 76.2531 186.059C76.1476 186.098 76.0011 186.135 75.8136 186.17L75.4386 186.24C75.0871 186.303 74.8351 186.379 74.6828 186.469C74.4249 186.621 74.296 186.857 74.296 187.178C74.296 187.463 74.3742 187.67 74.5304 187.799C74.6906 187.924 74.8839 187.986 75.1105 187.986C75.4699 187.986 75.7999 187.881 76.1007 187.67C76.4054 187.459 76.5636 187.074 76.5753 186.516V185.895ZM75.5617 185.115C75.8703 185.076 76.091 185.027 76.2238 184.969C76.4621 184.867 76.5812 184.709 76.5812 184.494C76.5812 184.232 76.4894 184.053 76.3058 183.955C76.1261 183.854 75.8605 183.803 75.5089 183.803C75.1144 183.803 74.8351 183.9 74.671 184.096C74.5538 184.24 74.4757 184.436 74.4367 184.682H72.8253C72.8605 184.123 73.0167 183.664 73.2941 183.305C73.7355 182.742 74.4933 182.461 75.5675 182.461C76.2667 182.461 76.8878 182.6 77.4308 182.877C77.9738 183.154 78.2453 183.678 78.2453 184.447V187.377C78.2453 187.58 78.2492 187.826 78.257 188.115C78.2687 188.334 78.3019 188.482 78.3566 188.561C78.4113 188.639 78.4933 188.703 78.6027 188.754V189H76.7863C76.7355 188.871 76.7003 188.75 76.6808 188.637C76.6613 188.523 76.6456 188.395 76.6339 188.25C76.4035 188.5 76.1378 188.713 75.8371 188.889C75.4777 189.096 75.0714 189.199 74.6183 189.199C74.0402 189.199 73.5617 189.035 73.1828 188.707C72.8078 188.375 72.6203 187.906 72.6203 187.301C72.6203 186.516 72.923 185.947 73.5285 185.596C73.8605 185.404 74.3488 185.268 74.9933 185.186L75.5617 185.115ZM79.0773 183.861V182.672H79.9679V180.891H81.6203V182.672H82.6574V183.861H81.6203V187.236C81.6203 187.498 81.6535 187.662 81.7199 187.729C81.7863 187.791 81.9894 187.822 82.3292 187.822C82.38 187.822 82.4328 187.822 82.4874 187.822C82.546 187.818 82.6027 187.814 82.6574 187.811V189.059L81.8663 189.088C81.0773 189.115 80.5382 188.979 80.2492 188.678C80.0617 188.486 79.9679 188.191 79.9679 187.793V183.861H79.0773ZM83.7531 183.07C84.1359 182.949 84.3996 182.744 84.5441 182.455C84.6222 182.283 84.6554 182.109 84.6437 181.934H83.7238V180.393H85.3937V181.629C85.3937 182.219 85.2492 182.684 84.9601 183.023C84.6749 183.363 84.2726 183.584 83.7531 183.686V183.07ZM87.9249 186.961C87.9601 187.258 88.0363 187.469 88.1535 187.594C88.3605 187.816 88.7433 187.928 89.3019 187.928C89.63 187.928 89.8898 187.879 90.0812 187.781C90.2765 187.684 90.3742 187.537 90.3742 187.342C90.3742 187.154 90.296 187.012 90.1398 186.914C89.9835 186.816 89.4035 186.648 88.3996 186.41C87.6769 186.23 87.1671 186.006 86.8703 185.736C86.5734 185.471 86.4249 185.088 86.4249 184.588C86.4249 183.998 86.6554 183.492 87.1163 183.07C87.5812 182.645 88.2335 182.432 89.0734 182.432C89.8703 182.432 90.5187 182.592 91.0187 182.912C91.5226 183.229 91.8117 183.777 91.8859 184.559H90.216C90.1925 184.344 90.132 184.174 90.0343 184.049C89.8507 183.822 89.5382 183.709 89.0968 183.709C88.7335 183.709 88.4738 183.766 88.3175 183.879C88.1652 183.992 88.089 184.125 88.089 184.277C88.089 184.469 88.171 184.607 88.3351 184.693C88.4992 184.783 89.0792 184.938 90.0753 185.156C90.7394 185.312 91.2374 185.549 91.5695 185.865C91.8976 186.186 92.0617 186.586 92.0617 187.066C92.0617 187.699 91.8253 188.217 91.3527 188.619C90.8839 189.018 90.1574 189.217 89.173 189.217C88.1691 189.217 87.4269 189.006 86.9464 188.584C86.4699 188.158 86.2316 187.617 86.2316 186.961H87.9249ZM96.9015 190.225L97.1124 190.236C97.2765 190.244 97.4328 190.238 97.5812 190.219C97.7296 190.199 97.8546 190.154 97.9562 190.084C98.0538 190.018 98.1437 189.879 98.2257 189.668C98.3117 189.457 98.3468 189.328 98.3312 189.281L95.9874 182.613H97.8449L99.2394 187.324L100.558 182.613H102.333L100.142 188.895C99.7199 190.105 99.3859 190.855 99.1398 191.145C98.8937 191.438 98.4015 191.584 97.6632 191.584C97.5148 191.584 97.3956 191.582 97.3058 191.578C97.216 191.578 97.0812 191.572 96.9015 191.561V190.225ZM106.189 187.822C106.677 187.822 107.052 187.648 107.314 187.301C107.575 186.953 107.706 186.459 107.706 185.818C107.706 185.178 107.575 184.686 107.314 184.342C107.052 183.994 106.677 183.82 106.189 183.82C105.7 183.82 105.323 183.994 105.058 184.342C104.796 184.686 104.665 185.178 104.665 185.818C104.665 186.459 104.796 186.953 105.058 187.301C105.323 187.648 105.7 187.822 106.189 187.822ZM109.458 185.818C109.458 186.756 109.189 187.559 108.65 188.227C108.11 188.891 107.292 189.223 106.194 189.223C105.097 189.223 104.278 188.891 103.739 188.227C103.2 187.559 102.931 186.756 102.931 185.818C102.931 184.896 103.2 184.098 103.739 183.422C104.278 182.746 105.097 182.408 106.194 182.408C107.292 182.408 108.11 182.746 108.65 183.422C109.189 184.098 109.458 184.896 109.458 185.818ZM112.323 182.613V186.463C112.323 186.826 112.366 187.1 112.452 187.283C112.605 187.607 112.903 187.77 113.349 187.77C113.919 187.77 114.31 187.539 114.521 187.078C114.63 186.828 114.685 186.498 114.685 186.088V182.613H116.378V189H114.755V188.098C114.739 188.117 114.7 188.176 114.638 188.273C114.575 188.371 114.501 188.457 114.415 188.531C114.153 188.766 113.9 188.926 113.653 189.012C113.411 189.098 113.126 189.141 112.798 189.141C111.853 189.141 111.216 188.801 110.888 188.121C110.704 187.746 110.612 187.193 110.612 186.463V182.613H112.323ZM121.464 182.461C121.495 182.461 121.521 182.463 121.54 182.467C121.564 182.467 121.612 182.469 121.687 182.473V184.184C121.581 184.172 121.487 184.164 121.405 184.16C121.323 184.156 121.257 184.154 121.206 184.154C120.534 184.154 120.083 184.373 119.853 184.811C119.724 185.057 119.659 185.436 119.659 185.947V189H117.978V182.613H119.571V183.727C119.829 183.301 120.054 183.01 120.245 182.854C120.558 182.592 120.964 182.461 121.464 182.461ZM128.53 183.82C128.144 183.82 127.843 183.941 127.628 184.184C127.417 184.426 127.284 184.754 127.23 185.168H129.825C129.798 184.727 129.663 184.393 129.421 184.166C129.183 183.936 128.886 183.82 128.53 183.82ZM128.53 182.443C129.062 182.443 129.54 182.543 129.966 182.742C130.392 182.941 130.743 183.256 131.021 183.686C131.271 184.064 131.433 184.504 131.507 185.004C131.55 185.297 131.568 185.719 131.56 186.27H127.189C127.212 186.91 127.413 187.359 127.792 187.617C128.023 187.777 128.3 187.857 128.624 187.857C128.968 187.857 129.247 187.76 129.462 187.564C129.579 187.459 129.683 187.312 129.773 187.125H131.478C131.435 187.504 131.237 187.889 130.886 188.279C130.339 188.9 129.573 189.211 128.589 189.211C127.777 189.211 127.06 188.949 126.439 188.426C125.818 187.902 125.507 187.051 125.507 185.871C125.507 184.766 125.786 183.918 126.345 183.328C126.907 182.738 127.636 182.443 128.53 182.443ZM139.827 182.473C140.109 182.473 140.386 182.527 140.659 182.637C140.933 182.746 141.181 182.938 141.403 183.211C141.583 183.434 141.704 183.707 141.767 184.031C141.806 184.246 141.825 184.561 141.825 184.975L141.814 189H140.103V184.934C140.103 184.691 140.064 184.492 139.985 184.336C139.837 184.039 139.564 183.891 139.165 183.891C138.704 183.891 138.386 184.082 138.21 184.465C138.12 184.668 138.075 184.912 138.075 185.197V189H136.394V185.197C136.394 184.818 136.355 184.543 136.277 184.371C136.136 184.062 135.86 183.908 135.45 183.908C134.974 183.908 134.653 184.062 134.489 184.371C134.4 184.547 134.355 184.809 134.355 185.156V189H132.661V182.625H134.284V183.557C134.491 183.225 134.687 182.988 134.87 182.848C135.194 182.598 135.614 182.473 136.13 182.473C136.618 182.473 137.013 182.58 137.314 182.795C137.556 182.994 137.739 183.25 137.864 183.562C138.083 183.188 138.355 182.912 138.679 182.736C139.023 182.561 139.405 182.473 139.827 182.473ZM146.888 185.895C146.782 185.961 146.675 186.016 146.566 186.059C146.46 186.098 146.314 186.135 146.126 186.17L145.751 186.24C145.4 186.303 145.148 186.379 144.995 186.469C144.737 186.621 144.609 186.857 144.609 187.178C144.609 187.463 144.687 187.67 144.843 187.799C145.003 187.924 145.196 187.986 145.423 187.986C145.782 187.986 146.112 187.881 146.413 187.67C146.718 187.459 146.876 187.074 146.888 186.516V185.895ZM145.874 185.115C146.183 185.076 146.403 185.027 146.536 184.969C146.775 184.867 146.894 184.709 146.894 184.494C146.894 184.232 146.802 184.053 146.618 183.955C146.439 183.854 146.173 183.803 145.821 183.803C145.427 183.803 145.148 183.9 144.984 184.096C144.866 184.24 144.788 184.436 144.749 184.682H143.138C143.173 184.123 143.329 183.664 143.607 183.305C144.048 182.742 144.806 182.461 145.88 182.461C146.579 182.461 147.2 182.6 147.743 182.877C148.286 183.154 148.558 183.678 148.558 184.447V187.377C148.558 187.58 148.562 187.826 148.569 188.115C148.581 188.334 148.614 188.482 148.669 188.561C148.724 188.639 148.806 188.703 148.915 188.754V189H147.099C147.048 188.871 147.013 188.75 146.993 188.637C146.974 188.523 146.958 188.395 146.946 188.25C146.716 188.5 146.45 188.713 146.15 188.889C145.79 189.096 145.384 189.199 144.931 189.199C144.353 189.199 143.874 189.035 143.495 188.707C143.12 188.375 142.933 187.906 142.933 187.301C142.933 186.516 143.235 185.947 143.841 185.596C144.173 185.404 144.661 185.268 145.306 185.186L145.874 185.115ZM151.763 181.852H150.069V180.311H151.763V181.852ZM150.069 182.613H151.763V189H150.069V182.613ZM155.091 189H153.421V180.363H155.091V189ZM158.806 187.307H160.552V189H158.806V187.307ZM156.667 183.088C156.714 181.975 157.103 181.186 157.833 180.721C158.294 180.424 158.86 180.275 159.532 180.275C160.415 180.275 161.148 180.486 161.73 180.908C162.316 181.33 162.609 181.955 162.609 182.783C162.609 183.291 162.482 183.719 162.228 184.066C162.079 184.277 161.794 184.547 161.372 184.875L160.956 185.197C160.73 185.373 160.579 185.578 160.505 185.812C160.458 185.961 160.433 186.191 160.429 186.504H158.847C158.87 185.844 158.933 185.389 159.034 185.139C159.136 184.885 159.398 184.594 159.819 184.266L160.247 183.932C160.388 183.826 160.501 183.711 160.587 183.586C160.743 183.371 160.821 183.135 160.821 182.877C160.821 182.58 160.734 182.311 160.558 182.068C160.386 181.822 160.069 181.699 159.609 181.699C159.155 181.699 158.833 181.85 158.642 182.15C158.454 182.451 158.36 182.764 158.36 183.088H156.667Z" fill="#5F5F5F"/>
</g>
</g>
<g id="Group 1">
<g id="Rectangle 9" filter="url(#filter3_d)">
<path d="M109 124C109 121.239 111.239 119 114 119H327C329.761 119 332 121.239 332 124V137C332 139.761 329.761 142 327 142H114C111.239 142 109 139.761 109 137V124Z" fill="white"/>
<path d="M109.5 124C109.5 121.515 111.515 119.5 114 119.5H327C329.485 119.5 331.5 121.515 331.5 124V137C331.5 139.485 329.485 141.5 327 141.5H114C111.515 141.5 109.5 139.485 109.5 137V124Z" stroke="#BBBBBB"/>
</g>
<path id="Yeah, you too, let&#226;&#128;&#153;s keep in touch." d="M128.357 125.545H130.402L127.513 130.936V134.182H125.709V130.936L122.72 125.545H124.847L126.64 129.307L128.357 125.545ZM133.162 129.002C132.775 129.002 132.474 129.123 132.259 129.365C132.048 129.608 131.916 129.936 131.861 130.35H134.457C134.429 129.908 134.294 129.574 134.052 129.348C133.814 129.117 133.517 129.002 133.162 129.002ZM133.162 127.625C133.693 127.625 134.171 127.725 134.597 127.924C135.023 128.123 135.375 128.438 135.652 128.867C135.902 129.246 136.064 129.686 136.138 130.186C136.181 130.479 136.199 130.901 136.191 131.451H131.82C131.843 132.092 132.044 132.541 132.423 132.799C132.654 132.959 132.931 133.039 133.255 133.039C133.599 133.039 133.878 132.942 134.093 132.746C134.21 132.641 134.314 132.494 134.404 132.307H136.109C136.066 132.686 135.869 133.07 135.517 133.461C134.97 134.082 134.205 134.393 133.22 134.393C132.408 134.393 131.691 134.131 131.07 133.608C130.449 133.084 130.138 132.233 130.138 131.053C130.138 129.947 130.417 129.1 130.976 128.51C131.539 127.92 132.267 127.625 133.162 127.625ZM140.843 131.076C140.738 131.143 140.63 131.197 140.521 131.24C140.416 131.279 140.269 131.317 140.082 131.352L139.707 131.422C139.355 131.485 139.103 131.561 138.951 131.651C138.693 131.803 138.564 132.039 138.564 132.36C138.564 132.645 138.642 132.852 138.798 132.981C138.959 133.106 139.152 133.168 139.378 133.168C139.738 133.168 140.068 133.063 140.369 132.852C140.673 132.641 140.832 132.256 140.843 131.697V131.076ZM139.83 130.297C140.138 130.258 140.359 130.209 140.492 130.151C140.73 130.049 140.849 129.891 140.849 129.676C140.849 129.414 140.757 129.235 140.574 129.137C140.394 129.035 140.128 128.985 139.777 128.985C139.382 128.985 139.103 129.082 138.939 129.278C138.822 129.422 138.744 129.617 138.705 129.863H137.093C137.128 129.305 137.285 128.846 137.562 128.487C138.003 127.924 138.761 127.643 139.835 127.643C140.535 127.643 141.156 127.781 141.699 128.059C142.242 128.336 142.513 128.86 142.513 129.629V132.559C142.513 132.762 142.517 133.008 142.525 133.297C142.537 133.516 142.57 133.664 142.625 133.742C142.679 133.82 142.761 133.885 142.871 133.936V134.182H141.054C141.003 134.053 140.968 133.932 140.949 133.819C140.929 133.705 140.914 133.576 140.902 133.432C140.671 133.682 140.406 133.895 140.105 134.07C139.746 134.278 139.339 134.381 138.886 134.381C138.308 134.381 137.83 134.217 137.451 133.889C137.076 133.557 136.888 133.088 136.888 132.483C136.888 131.697 137.191 131.129 137.796 130.778C138.128 130.586 138.617 130.449 139.261 130.367L139.83 130.297ZM147.523 127.631C147.917 127.631 148.275 127.699 148.595 127.836C148.919 127.973 149.185 128.182 149.392 128.463C149.568 128.701 149.675 128.947 149.714 129.201C149.753 129.451 149.773 129.862 149.773 130.432V134.182H148.068V130.297C148.068 129.953 148.009 129.676 147.892 129.465C147.74 129.168 147.451 129.02 147.025 129.02C146.584 129.02 146.248 129.168 146.017 129.465C145.791 129.758 145.677 130.178 145.677 130.725V134.182H144.013V125.574H145.677V128.627C145.919 128.256 146.199 127.998 146.515 127.854C146.835 127.705 147.171 127.631 147.523 127.631ZM151.25 135.57C151.585 135.477 151.832 135.32 151.988 135.102C152.148 134.883 152.24 134.576 152.263 134.182H151.25V132.436H153.054V133.947C153.054 134.213 153.019 134.49 152.949 134.779C152.878 135.069 152.748 135.319 152.556 135.529C152.349 135.756 152.105 135.926 151.824 136.039C151.546 136.156 151.355 136.215 151.25 136.215V135.57ZM158.275 135.406L158.486 135.418C158.65 135.426 158.806 135.42 158.955 135.401C159.103 135.381 159.228 135.336 159.33 135.266C159.427 135.199 159.517 135.061 159.599 134.85C159.685 134.639 159.72 134.51 159.705 134.463L157.361 127.795H159.218L160.613 132.506L161.931 127.795H163.707L161.515 134.076C161.093 135.287 160.759 136.037 160.513 136.326C160.267 136.619 159.775 136.766 159.037 136.766C158.888 136.766 158.769 136.764 158.679 136.76C158.589 136.76 158.455 136.754 158.275 136.742V135.406ZM167.562 133.004C168.05 133.004 168.425 132.83 168.687 132.483C168.949 132.135 169.08 131.641 169.08 131C169.08 130.36 168.949 129.867 168.687 129.524C168.425 129.176 168.05 129.002 167.562 129.002C167.074 129.002 166.697 129.176 166.431 129.524C166.169 129.867 166.039 130.36 166.039 131C166.039 131.641 166.169 132.135 166.431 132.483C166.697 132.83 167.074 133.004 167.562 133.004ZM170.832 131C170.832 131.938 170.562 132.74 170.023 133.408C169.484 134.072 168.666 134.404 167.568 134.404C166.47 134.404 165.652 134.072 165.113 133.408C164.574 132.74 164.304 131.938 164.304 131C164.304 130.078 164.574 129.279 165.113 128.604C165.652 127.928 166.47 127.59 167.568 127.59C168.666 127.59 169.484 127.928 170.023 128.604C170.562 129.279 170.832 130.078 170.832 131ZM173.697 127.795V131.645C173.697 132.008 173.74 132.281 173.826 132.465C173.978 132.789 174.277 132.951 174.722 132.951C175.292 132.951 175.683 132.721 175.894 132.26C176.003 132.01 176.058 131.68 176.058 131.27V127.795H177.751V134.182H176.128V133.279C176.113 133.299 176.074 133.358 176.011 133.455C175.949 133.553 175.875 133.639 175.789 133.713C175.527 133.947 175.273 134.108 175.027 134.194C174.785 134.279 174.5 134.322 174.171 134.322C173.226 134.322 172.589 133.983 172.261 133.303C172.078 132.928 171.986 132.375 171.986 131.645V127.795H173.697ZM182.052 129.043V127.854H182.943V126.072H184.595V127.854H185.632V129.043H184.595V132.418C184.595 132.68 184.628 132.844 184.695 132.91C184.761 132.973 184.964 133.004 185.304 133.004C185.355 133.004 185.408 133.004 185.462 133.004C185.521 133 185.578 132.996 185.632 132.992V134.24L184.841 134.27C184.052 134.297 183.513 134.16 183.224 133.86C183.037 133.668 182.943 133.373 182.943 132.975V129.043H182.052ZM189.57 133.004C190.058 133.004 190.433 132.83 190.695 132.483C190.957 132.135 191.087 131.641 191.087 131C191.087 130.36 190.957 129.867 190.695 129.524C190.433 129.176 190.058 129.002 189.57 129.002C189.082 129.002 188.705 129.176 188.439 129.524C188.177 129.867 188.046 130.36 188.046 131C188.046 131.641 188.177 132.135 188.439 132.483C188.705 132.83 189.082 133.004 189.57 133.004ZM192.839 131C192.839 131.938 192.57 132.74 192.031 133.408C191.492 134.072 190.673 134.404 189.576 134.404C188.478 134.404 187.66 134.072 187.121 133.408C186.582 132.74 186.312 131.938 186.312 131C186.312 130.078 186.582 129.279 187.121 128.604C187.66 127.928 188.478 127.59 189.576 127.59C190.673 127.59 191.492 127.928 192.031 128.604C192.57 129.279 192.839 130.078 192.839 131ZM196.906 133.004C197.394 133.004 197.769 132.83 198.031 132.483C198.292 132.135 198.423 131.641 198.423 131C198.423 130.36 198.292 129.867 198.031 129.524C197.769 129.176 197.394 129.002 196.906 129.002C196.417 129.002 196.041 129.176 195.775 129.524C195.513 129.867 195.382 130.36 195.382 131C195.382 131.641 195.513 132.135 195.775 132.483C196.041 132.83 196.417 133.004 196.906 133.004ZM200.175 131C200.175 131.938 199.906 132.74 199.367 133.408C198.828 134.072 198.009 134.404 196.912 134.404C195.814 134.404 194.996 134.072 194.457 133.408C193.917 132.74 193.648 131.938 193.648 131C193.648 130.078 193.917 129.279 194.457 128.604C194.996 127.928 195.814 127.59 196.912 127.59C198.009 127.59 198.828 127.928 199.367 128.604C199.906 129.279 200.175 130.078 200.175 131ZM201.289 135.57C201.625 135.477 201.871 135.32 202.027 135.102C202.187 134.883 202.279 134.576 202.302 134.182H201.289V132.436H203.093V133.947C203.093 134.213 203.058 134.49 202.988 134.779C202.917 135.069 202.787 135.319 202.595 135.529C202.388 135.756 202.144 135.926 201.863 136.039C201.585 136.156 201.394 136.215 201.289 136.215V135.57ZM209.761 134.182H208.091V125.545H209.761V134.182ZM213.916 129.002C213.529 129.002 213.228 129.123 213.013 129.365C212.802 129.608 212.669 129.936 212.615 130.35H215.21C215.183 129.908 215.048 129.574 214.806 129.348C214.568 129.117 214.271 129.002 213.916 129.002ZM213.916 127.625C214.447 127.625 214.925 127.725 215.351 127.924C215.777 128.123 216.128 128.438 216.406 128.867C216.656 129.246 216.818 129.686 216.892 130.186C216.935 130.479 216.953 130.901 216.945 131.451H212.574C212.597 132.092 212.798 132.541 213.177 132.799C213.408 132.959 213.685 133.039 214.009 133.039C214.353 133.039 214.632 132.942 214.847 132.746C214.964 132.641 215.068 132.494 215.158 132.307H216.863C216.82 132.686 216.623 133.07 216.271 133.461C215.724 134.082 214.959 134.393 213.974 134.393C213.162 134.393 212.445 134.131 211.824 133.608C211.203 133.084 210.892 132.233 210.892 131.053C210.892 129.947 211.171 129.1 211.73 128.51C212.292 127.92 213.021 127.625 213.916 127.625ZM217.419 129.043V127.854H218.31V126.072H219.962V127.854H221V129.043H219.962V132.418C219.962 132.68 219.996 132.844 220.062 132.91C220.128 132.973 220.332 133.004 220.671 133.004C220.722 133.004 220.775 133.004 220.83 133.004C220.888 133 220.945 132.996 221 132.992V134.24L220.209 134.27C219.419 134.297 218.88 134.16 218.591 133.86C218.404 133.668 218.31 133.373 218.31 132.975V129.043H217.419ZM222.095 128.252C222.478 128.131 222.742 127.926 222.886 127.637C222.964 127.465 222.998 127.291 222.986 127.115H222.066V125.574H223.736V126.811C223.736 127.401 223.591 127.865 223.302 128.205C223.017 128.545 222.615 128.766 222.095 128.867V128.252ZM226.267 132.143C226.302 132.44 226.378 132.651 226.496 132.776C226.703 132.998 227.085 133.11 227.644 133.11C227.972 133.11 228.232 133.061 228.423 132.963C228.619 132.865 228.716 132.719 228.716 132.524C228.716 132.336 228.638 132.194 228.482 132.096C228.326 131.998 227.746 131.83 226.742 131.592C226.019 131.412 225.509 131.188 225.212 130.918C224.916 130.653 224.767 130.27 224.767 129.77C224.767 129.18 224.998 128.674 225.459 128.252C225.923 127.826 226.576 127.613 227.416 127.613C228.212 127.613 228.861 127.774 229.361 128.094C229.865 128.41 230.154 128.959 230.228 129.74H228.558C228.535 129.526 228.474 129.356 228.376 129.231C228.193 129.004 227.88 128.891 227.439 128.891C227.076 128.891 226.816 128.947 226.66 129.061C226.507 129.174 226.431 129.307 226.431 129.459C226.431 129.651 226.513 129.789 226.677 129.875C226.841 129.965 227.421 130.119 228.417 130.338C229.082 130.494 229.58 130.731 229.912 131.047C230.24 131.367 230.404 131.768 230.404 132.248C230.404 132.881 230.167 133.399 229.695 133.801C229.226 134.199 228.5 134.399 227.515 134.399C226.511 134.399 225.769 134.188 225.289 133.766C224.812 133.34 224.574 132.799 224.574 132.143H226.267ZM234.968 125.574H236.609V130.227L238.689 127.824H240.757L238.525 130.268L240.845 134.182H238.83L237.3 131.451L236.609 132.172V134.182H234.968V125.574ZM244.185 129.002C243.798 129.002 243.498 129.123 243.283 129.365C243.072 129.608 242.939 129.936 242.884 130.35H245.48C245.453 129.908 245.318 129.574 245.076 129.348C244.837 129.117 244.541 129.002 244.185 129.002ZM244.185 127.625C244.716 127.625 245.195 127.725 245.621 127.924C246.046 128.123 246.398 128.438 246.675 128.867C246.925 129.246 247.087 129.686 247.162 130.186C247.205 130.479 247.222 130.901 247.214 131.451H242.843C242.867 132.092 243.068 132.541 243.447 132.799C243.677 132.959 243.955 133.039 244.279 133.039C244.623 133.039 244.902 132.942 245.117 132.746C245.234 132.641 245.337 132.494 245.427 132.307H247.132C247.089 132.686 246.892 133.07 246.541 133.461C245.994 134.082 245.228 134.393 244.244 134.393C243.431 134.393 242.714 134.131 242.093 133.608C241.472 133.084 241.162 132.233 241.162 131.053C241.162 129.947 241.441 129.1 242 128.51C242.562 127.92 243.291 127.625 244.185 127.625ZM250.865 129.002C250.478 129.002 250.177 129.123 249.962 129.365C249.751 129.608 249.619 129.936 249.564 130.35H252.16C252.132 129.908 251.998 129.574 251.755 129.348C251.517 129.117 251.22 129.002 250.865 129.002ZM250.865 127.625C251.396 127.625 251.875 127.725 252.3 127.924C252.726 128.123 253.078 128.438 253.355 128.867C253.605 129.246 253.767 129.686 253.841 130.186C253.884 130.479 253.902 130.901 253.894 131.451H249.523C249.546 132.092 249.748 132.541 250.126 132.799C250.357 132.959 250.634 133.039 250.959 133.039C251.302 133.039 251.582 132.942 251.796 132.746C251.914 132.641 252.017 132.494 252.107 132.307H253.812C253.769 132.686 253.572 133.07 253.22 133.461C252.673 134.082 251.908 134.393 250.923 134.393C250.111 134.393 249.394 134.131 248.773 133.608C248.152 133.084 247.841 132.233 247.841 131.053C247.841 129.947 248.121 129.1 248.679 128.51C249.242 127.92 249.97 127.625 250.865 127.625ZM259.425 130.988C259.425 130.496 259.312 130.061 259.085 129.682C258.863 129.303 258.5 129.113 257.996 129.113C257.39 129.113 256.974 129.401 256.748 129.975C256.63 130.279 256.572 130.666 256.572 131.135C256.572 131.877 256.769 132.399 257.164 132.699C257.398 132.875 257.675 132.963 257.996 132.963C258.46 132.963 258.814 132.783 259.056 132.424C259.302 132.065 259.425 131.586 259.425 130.988ZM258.476 127.654C259.222 127.654 259.853 127.93 260.369 128.481C260.888 129.031 261.148 129.84 261.148 130.906C261.148 132.031 260.894 132.889 260.386 133.479C259.882 134.069 259.232 134.363 258.435 134.363C257.927 134.363 257.505 134.237 257.169 133.983C256.986 133.842 256.806 133.637 256.63 133.367V136.695H254.978V127.795H256.578V128.738C256.757 128.461 256.949 128.242 257.152 128.082C257.523 127.797 257.964 127.654 258.476 127.654ZM267.417 127.033H265.724V125.492H267.417V127.033ZM265.724 127.795H267.417V134.182H265.724V127.795ZM272.58 127.643C273.24 127.643 273.779 127.817 274.197 128.164C274.619 128.508 274.83 129.08 274.83 129.881V134.182H273.119V130.297C273.119 129.961 273.074 129.703 272.984 129.524C272.82 129.195 272.507 129.031 272.046 129.031C271.48 129.031 271.091 129.272 270.88 129.752C270.771 130.006 270.716 130.33 270.716 130.725V134.182H269.052V127.807H270.664V128.738C270.878 128.41 271.082 128.174 271.273 128.029C271.617 127.772 272.052 127.643 272.58 127.643ZM279.06 129.043V127.854H279.951V126.072H281.603V127.854H282.64V129.043H281.603V132.418C281.603 132.68 281.636 132.844 281.703 132.91C281.769 132.973 281.972 133.004 282.312 133.004C282.363 133.004 282.416 133.004 282.47 133.004C282.529 133 282.585 132.996 282.64 132.992V134.24L281.849 134.27C281.06 134.297 280.521 134.16 280.232 133.86C280.044 133.668 279.951 133.373 279.951 132.975V129.043H279.06ZM286.578 133.004C287.066 133.004 287.441 132.83 287.703 132.483C287.964 132.135 288.095 131.641 288.095 131C288.095 130.36 287.964 129.867 287.703 129.524C287.441 129.176 287.066 129.002 286.578 129.002C286.089 129.002 285.712 129.176 285.447 129.524C285.185 129.867 285.054 130.36 285.054 131C285.054 131.641 285.185 132.135 285.447 132.483C285.712 132.83 286.089 133.004 286.578 133.004ZM289.847 131C289.847 131.938 289.578 132.74 289.039 133.408C288.5 134.072 287.681 134.404 286.584 134.404C285.486 134.404 284.667 134.072 284.128 133.408C283.589 132.74 283.32 131.938 283.32 131C283.32 130.078 283.589 129.279 284.128 128.604C284.667 127.928 285.486 127.59 286.584 127.59C287.681 127.59 288.5 127.928 289.039 128.604C289.578 129.279 289.847 130.078 289.847 131ZM292.712 127.795V131.645C292.712 132.008 292.755 132.281 292.841 132.465C292.994 132.789 293.292 132.951 293.738 132.951C294.308 132.951 294.699 132.721 294.91 132.26C295.019 132.01 295.074 131.68 295.074 131.27V127.795H296.767V134.182H295.144V133.279C295.128 133.299 295.089 133.358 295.027 133.455C294.964 133.553 294.89 133.639 294.804 133.713C294.542 133.947 294.289 134.108 294.042 134.194C293.8 134.279 293.515 134.322 293.187 134.322C292.242 134.322 291.605 133.983 291.277 133.303C291.093 132.928 291.001 132.375 291.001 131.645V127.795H292.712ZM302.199 130.086C302.167 129.848 302.087 129.633 301.959 129.442C301.771 129.184 301.48 129.055 301.085 129.055C300.523 129.055 300.138 129.334 299.931 129.893C299.822 130.19 299.767 130.584 299.767 131.076C299.767 131.545 299.822 131.922 299.931 132.207C300.13 132.738 300.505 133.004 301.056 133.004C301.447 133.004 301.724 132.899 301.888 132.688C302.052 132.477 302.152 132.203 302.187 131.867H303.892C303.853 132.375 303.669 132.856 303.341 133.309C302.818 134.039 302.042 134.404 301.015 134.404C299.988 134.404 299.232 134.1 298.748 133.49C298.263 132.881 298.021 132.09 298.021 131.117C298.021 130.02 298.289 129.166 298.824 128.557C299.359 127.947 300.097 127.643 301.039 127.643C301.839 127.643 302.494 127.822 303.001 128.182C303.513 128.541 303.816 129.176 303.91 130.086H302.199ZM308.585 127.631C308.98 127.631 309.337 127.699 309.658 127.836C309.982 127.973 310.248 128.182 310.455 128.463C310.63 128.701 310.738 128.947 310.777 129.201C310.816 129.451 310.835 129.862 310.835 130.432V134.182H309.13V130.297C309.13 129.953 309.072 129.676 308.955 129.465C308.802 129.168 308.513 129.02 308.087 129.02C307.646 129.02 307.31 129.168 307.08 129.465C306.853 129.758 306.74 130.178 306.74 130.725V134.182H305.076V125.574H306.74V128.627C306.982 128.256 307.261 127.998 307.578 127.854C307.898 127.705 308.234 127.631 308.585 127.631ZM312.371 132.436H314.146V134.182H312.371V132.436Z" fill="#5F5F5F"/>
</g>
<g id="Group 2">
<g id="Rectangle 11" filter="url(#filter4_d)">
<path d="M81 233C81 230.239 83.2386 228 86 228H327C329.761 228 332 230.239 332 233V273C332 275.761 329.761 278 327 278H86C83.2386 278 81 275.761 81 273V233Z" fill="#EAE5F6"/>
<path d="M81.5 233C81.5 230.515 83.5147 228.5 86 228.5H327C329.485 228.5 331.5 230.515 331.5 233V273C331.5 275.485 329.485 277.5 327 277.5H86C83.5147 277.5 81.5 275.485 81.5 273V233Z" stroke="#BBBBBB"/>
</g>
<path id="ivy_newlead@me.msk.sh" d="M98.1699 247.722H95.3477V245.154H98.1699V247.722ZM95.3477 248.992H98.1699V259.636H95.3477V248.992ZM107.438 248.992H110.426L106.588 259.636H103.648L99.8301 248.992H102.955L105.172 256.843L107.438 248.992ZM112.438 261.677L112.789 261.697C113.062 261.71 113.323 261.7 113.57 261.668C113.818 261.635 114.026 261.56 114.195 261.443C114.358 261.332 114.508 261.101 114.645 260.75C114.788 260.398 114.846 260.183 114.82 260.105L110.914 248.992H114.01L116.334 256.843L118.531 248.992H121.49L117.838 259.461C117.135 261.479 116.578 262.729 116.168 263.211C115.758 263.699 114.938 263.943 113.707 263.943C113.46 263.943 113.261 263.94 113.111 263.933C112.962 263.933 112.737 263.923 112.438 263.904V261.677ZM121.842 262.136V261.15H132.965V262.136H121.842ZM140.172 248.738C141.272 248.738 142.171 249.028 142.867 249.607C143.57 250.18 143.922 251.134 143.922 252.468V259.636H141.07V253.162C141.07 252.602 140.995 252.172 140.846 251.873C140.572 251.326 140.051 251.052 139.283 251.052C138.339 251.052 137.691 251.453 137.34 252.254C137.158 252.677 137.066 253.217 137.066 253.875V259.636H134.293V249.011H136.979V250.564C137.337 250.017 137.675 249.623 137.994 249.382C138.567 248.953 139.293 248.738 140.172 248.738ZM150.699 251.004C150.055 251.004 149.553 251.205 149.195 251.609C148.844 252.013 148.622 252.56 148.531 253.25H152.857C152.812 252.514 152.587 251.957 152.184 251.58C151.786 251.196 151.292 251.004 150.699 251.004ZM150.699 248.709C151.585 248.709 152.382 248.875 153.092 249.207C153.801 249.539 154.387 250.063 154.85 250.779C155.266 251.41 155.536 252.143 155.66 252.976C155.732 253.464 155.761 254.168 155.748 255.086H148.463C148.502 256.153 148.837 256.902 149.469 257.332C149.853 257.599 150.315 257.732 150.855 257.732C151.428 257.732 151.894 257.569 152.252 257.244C152.447 257.068 152.62 256.824 152.77 256.511H155.611C155.54 257.143 155.211 257.784 154.625 258.435C153.714 259.47 152.438 259.988 150.797 259.988C149.443 259.988 148.248 259.552 147.213 258.679C146.178 257.807 145.66 256.388 145.66 254.422C145.66 252.579 146.126 251.166 147.057 250.183C147.994 249.2 149.208 248.709 150.699 248.709ZM162.652 248.992H165.475L167.096 256.658L168.756 248.992H171.656L168.57 259.636H165.709L164.039 251.882L162.35 259.636H159.459L156.471 248.992H159.459L161.119 256.629L162.652 248.992ZM176.041 259.636H173.258V245.242H176.041V259.636ZM182.965 251.004C182.32 251.004 181.819 251.205 181.461 251.609C181.109 252.013 180.888 252.56 180.797 253.25H185.123C185.077 252.514 184.853 251.957 184.449 251.58C184.052 251.196 183.557 251.004 182.965 251.004ZM182.965 248.709C183.85 248.709 184.648 248.875 185.357 249.207C186.067 249.539 186.653 250.063 187.115 250.779C187.532 251.41 187.802 252.143 187.926 252.976C187.997 253.464 188.027 254.168 188.014 255.086H180.729C180.768 256.153 181.103 256.902 181.734 257.332C182.118 257.599 182.581 257.732 183.121 257.732C183.694 257.732 184.16 257.569 184.518 257.244C184.713 257.068 184.885 256.824 185.035 256.511H187.877C187.805 257.143 187.477 257.784 186.891 258.435C185.979 259.47 184.703 259.988 183.062 259.988C181.708 259.988 180.514 259.552 179.479 258.679C178.443 257.807 177.926 256.388 177.926 254.422C177.926 252.579 178.391 251.166 179.322 250.183C180.26 249.2 181.474 248.709 182.965 248.709ZM195.768 254.461C195.592 254.571 195.413 254.662 195.23 254.734C195.055 254.799 194.811 254.861 194.498 254.92L193.873 255.037C193.287 255.141 192.867 255.268 192.613 255.418C192.184 255.672 191.969 256.065 191.969 256.599C191.969 257.075 192.099 257.42 192.359 257.634C192.626 257.843 192.949 257.947 193.326 257.947C193.925 257.947 194.475 257.771 194.977 257.42C195.484 257.068 195.748 256.427 195.768 255.496V254.461ZM194.078 253.162C194.592 253.097 194.96 253.015 195.182 252.918C195.579 252.748 195.777 252.485 195.777 252.127C195.777 251.69 195.624 251.391 195.318 251.228C195.019 251.059 194.576 250.974 193.99 250.974C193.333 250.974 192.867 251.137 192.594 251.463C192.398 251.703 192.268 252.029 192.203 252.439H189.518C189.576 251.508 189.837 250.743 190.299 250.144C191.035 249.207 192.298 248.738 194.088 248.738C195.253 248.738 196.288 248.969 197.193 249.431C198.098 249.894 198.551 250.766 198.551 252.048V256.931C198.551 257.27 198.557 257.68 198.57 258.162C198.59 258.526 198.645 258.774 198.736 258.904C198.827 259.034 198.964 259.142 199.146 259.226V259.636H196.119C196.035 259.422 195.976 259.22 195.943 259.031C195.911 258.842 195.885 258.627 195.865 258.386C195.481 258.803 195.038 259.158 194.537 259.451C193.938 259.796 193.261 259.968 192.506 259.968C191.542 259.968 190.745 259.695 190.113 259.148C189.488 258.595 189.176 257.813 189.176 256.804C189.176 255.496 189.68 254.548 190.689 253.963C191.243 253.644 192.057 253.416 193.131 253.279L194.078 253.162ZM204.957 248.738C205.602 248.738 206.174 248.881 206.676 249.168C207.177 249.448 207.584 249.838 207.896 250.339V245.261H210.719V259.636H208.014V258.162C207.617 258.793 207.164 259.252 206.656 259.539C206.148 259.825 205.517 259.968 204.762 259.968C203.518 259.968 202.47 259.467 201.617 258.464C200.771 257.455 200.348 256.163 200.348 254.588C200.348 252.771 200.764 251.342 201.598 250.3C202.438 249.259 203.557 248.738 204.957 248.738ZM205.562 257.625C206.35 257.625 206.949 257.332 207.359 256.746C207.77 256.16 207.975 255.401 207.975 254.47C207.975 253.168 207.646 252.237 206.988 251.677C206.585 251.339 206.116 251.17 205.582 251.17C204.768 251.17 204.169 251.479 203.785 252.097C203.408 252.709 203.219 253.471 203.219 254.382C203.219 255.366 203.411 256.153 203.795 256.746C204.186 257.332 204.775 257.625 205.562 257.625ZM222.392 251.656C222.392 251.345 222.298 251.085 222.11 250.874C221.923 250.663 221.671 250.557 221.354 250.557C220.745 250.557 220.221 250.938 219.781 251.7C219.342 252.456 219.122 253.188 219.122 253.897C219.122 254.325 219.219 254.671 219.412 254.934C219.611 255.198 219.89 255.33 220.247 255.33C220.874 255.33 221.387 254.855 221.785 253.906C222.189 252.951 222.392 252.201 222.392 251.656ZM219.685 256.622C218.976 256.622 218.384 256.367 217.909 255.857C217.44 255.347 217.206 254.635 217.206 253.721C217.206 252.661 217.566 251.668 218.287 250.742C219.008 249.816 219.893 249.353 220.941 249.353C221.557 249.353 222.034 249.523 222.374 249.863C222.632 250.127 222.805 250.428 222.893 250.768L223.209 249.661H224.87L223.745 253.475C223.657 253.786 223.593 254.017 223.552 254.17C223.517 254.316 223.499 254.445 223.499 254.556C223.499 254.732 223.558 254.899 223.675 255.057C223.792 255.21 223.979 255.286 224.237 255.286C224.741 255.286 225.245 254.958 225.749 254.301C226.259 253.639 226.514 252.763 226.514 251.673C226.514 250.062 225.822 248.905 224.439 248.202C223.572 247.756 222.597 247.534 221.513 247.534C219.521 247.534 217.921 248.143 216.714 249.362C215.624 250.464 215.079 251.785 215.079 253.326C215.079 255.037 215.718 256.393 216.995 257.395C218.126 258.28 219.506 258.722 221.135 258.722C222.248 258.722 223.288 258.517 224.255 258.107C224.782 257.89 225.327 257.583 225.89 257.184L226.101 257.035L226.742 258.019C225.91 258.664 225.008 259.156 224.035 259.496C223.068 259.83 222.063 259.997 221.021 259.997C218.589 259.997 216.705 259.241 215.369 257.729C214.262 256.475 213.708 254.99 213.708 253.273C213.708 251.351 214.399 249.722 215.782 248.386C217.235 246.974 219.096 246.268 221.363 246.268C223.209 246.268 224.738 246.752 225.951 247.718C227.229 248.738 227.867 250.091 227.867 251.779C227.867 253.109 227.463 254.252 226.654 255.207C225.846 256.156 224.923 256.631 223.886 256.631C223.347 256.631 222.931 256.478 222.638 256.173C222.351 255.869 222.207 255.555 222.207 255.233C222.207 255.192 222.207 255.148 222.207 255.101C222.213 255.048 222.219 254.993 222.225 254.934C222.002 255.356 221.753 255.693 221.478 255.945C220.979 256.396 220.382 256.622 219.685 256.622ZM241.394 249.845C241.815 249.845 242.231 249.927 242.642 250.091C243.052 250.256 243.424 250.543 243.758 250.953C244.027 251.287 244.209 251.697 244.303 252.183C244.361 252.506 244.391 252.977 244.391 253.598L244.373 259.636H241.807V253.537C241.807 253.173 241.748 252.875 241.631 252.64C241.408 252.195 240.998 251.972 240.4 251.972C239.709 251.972 239.231 252.259 238.968 252.834C238.833 253.138 238.766 253.505 238.766 253.932V259.636H236.243V253.932C236.243 253.364 236.185 252.951 236.067 252.693C235.856 252.23 235.443 251.999 234.828 251.999C234.113 251.999 233.633 252.23 233.387 252.693C233.252 252.957 233.185 253.349 233.185 253.871V259.636H230.645V250.074H233.079V251.471C233.39 250.973 233.683 250.619 233.958 250.408C234.444 250.033 235.074 249.845 235.848 249.845C236.58 249.845 237.172 250.006 237.623 250.329C237.986 250.628 238.262 251.011 238.449 251.48C238.777 250.918 239.185 250.505 239.671 250.241C240.187 249.977 240.761 249.845 241.394 249.845ZM250.481 251.867C249.901 251.867 249.45 252.048 249.128 252.412C248.812 252.775 248.612 253.267 248.53 253.888H252.424C252.383 253.226 252.181 252.725 251.817 252.385C251.46 252.04 251.015 251.867 250.481 251.867ZM250.481 249.801C251.278 249.801 251.996 249.951 252.635 250.25C253.273 250.548 253.801 251.02 254.217 251.665C254.592 252.233 254.835 252.892 254.946 253.642C255.011 254.082 255.037 254.714 255.025 255.541H248.469C248.504 256.502 248.806 257.175 249.374 257.562C249.72 257.802 250.136 257.923 250.622 257.923C251.138 257.923 251.557 257.776 251.879 257.483C252.055 257.325 252.21 257.105 252.345 256.824H254.902C254.838 257.392 254.542 257.969 254.015 258.555C253.194 259.487 252.046 259.953 250.569 259.953C249.351 259.953 248.275 259.56 247.344 258.775C246.412 257.99 245.946 256.713 245.946 254.943C245.946 253.285 246.365 252.013 247.203 251.129C248.047 250.244 249.14 249.801 250.481 249.801ZM256.678 257.017H259.341V259.636H256.678V257.017ZM272.437 249.845C272.858 249.845 273.274 249.927 273.685 250.091C274.095 250.256 274.467 250.543 274.801 250.953C275.07 251.287 275.252 251.697 275.346 252.183C275.404 252.506 275.434 252.977 275.434 253.598L275.416 259.636H272.85V253.537C272.85 253.173 272.791 252.875 272.674 252.64C272.451 252.195 272.041 251.972 271.443 251.972C270.752 251.972 270.274 252.259 270.011 252.834C269.876 253.138 269.809 253.505 269.809 253.932V259.636H267.286V253.932C267.286 253.364 267.228 252.951 267.11 252.693C266.899 252.23 266.486 251.999 265.871 251.999C265.156 251.999 264.676 252.23 264.43 252.693C264.295 252.957 264.228 253.349 264.228 253.871V259.636H261.688V250.074H264.122V251.471C264.433 250.973 264.726 250.619 265.001 250.408C265.487 250.033 266.117 249.845 266.891 249.845C267.623 249.845 268.215 250.006 268.666 250.329C269.029 250.628 269.305 251.011 269.492 251.48C269.82 250.918 270.228 250.505 270.714 250.241C271.229 249.977 271.804 249.845 272.437 249.845ZM279.696 256.578C279.749 257.023 279.863 257.339 280.039 257.527C280.35 257.861 280.924 258.028 281.762 258.028C282.254 258.028 282.644 257.955 282.931 257.808C283.224 257.662 283.37 257.442 283.37 257.149C283.37 256.868 283.253 256.654 283.019 256.507C282.784 256.361 281.914 256.109 280.408 255.752C279.324 255.482 278.56 255.145 278.114 254.741C277.669 254.342 277.446 253.768 277.446 253.018C277.446 252.133 277.792 251.375 278.483 250.742C279.181 250.103 280.159 249.784 281.419 249.784C282.614 249.784 283.587 250.024 284.337 250.505C285.093 250.979 285.526 251.802 285.638 252.974H283.133C283.098 252.652 283.007 252.397 282.86 252.21C282.585 251.87 282.116 251.7 281.454 251.7C280.909 251.7 280.52 251.785 280.285 251.955C280.057 252.125 279.942 252.324 279.942 252.552C279.942 252.839 280.065 253.048 280.312 253.176C280.558 253.311 281.428 253.543 282.922 253.871C283.918 254.105 284.665 254.46 285.163 254.934C285.655 255.415 285.901 256.015 285.901 256.736C285.901 257.685 285.547 258.462 284.838 259.065C284.135 259.663 283.045 259.962 281.568 259.962C280.062 259.962 278.949 259.645 278.229 259.012C277.514 258.374 277.156 257.562 277.156 256.578H279.696ZM287.738 246.725H290.199V253.704L293.319 250.1H296.422L293.073 253.765L296.554 259.636H293.53L291.236 255.541L290.199 256.622V259.636H287.738V246.725ZM297.74 257.017H300.403V259.636H297.74V257.017ZM304.745 256.578C304.798 257.023 304.912 257.339 305.088 257.527C305.398 257.861 305.973 258.028 306.811 258.028C307.303 258.028 307.692 257.955 307.979 257.808C308.272 257.662 308.419 257.442 308.419 257.149C308.419 256.868 308.302 256.654 308.067 256.507C307.833 256.361 306.963 256.109 305.457 255.752C304.373 255.482 303.608 255.145 303.163 254.741C302.718 254.342 302.495 253.768 302.495 253.018C302.495 252.133 302.841 251.375 303.532 250.742C304.229 250.103 305.208 249.784 306.468 249.784C307.663 249.784 308.636 250.024 309.386 250.505C310.142 250.979 310.575 251.802 310.687 252.974H308.182C308.146 252.652 308.056 252.397 307.909 252.21C307.634 251.87 307.165 251.7 306.503 251.7C305.958 251.7 305.568 251.785 305.334 251.955C305.105 252.125 304.991 252.324 304.991 252.552C304.991 252.839 305.114 253.048 305.36 253.176C305.606 253.311 306.477 253.543 307.971 253.871C308.967 254.105 309.714 254.46 310.212 254.934C310.704 255.415 310.95 256.015 310.95 256.736C310.95 257.685 310.596 258.462 309.887 259.065C309.184 259.663 308.094 259.962 306.617 259.962C305.111 259.962 303.998 259.645 303.277 259.012C302.562 258.374 302.205 257.562 302.205 256.578H304.745ZM318.096 249.81C318.688 249.81 319.224 249.913 319.704 250.118C320.19 250.323 320.589 250.636 320.899 251.058C321.163 251.416 321.324 251.785 321.383 252.166C321.441 252.541 321.471 253.156 321.471 254.011V259.636H318.913V253.809C318.913 253.294 318.825 252.878 318.649 252.561C318.421 252.116 317.987 251.893 317.349 251.893C316.687 251.893 316.183 252.116 315.837 252.561C315.497 253.001 315.327 253.631 315.327 254.451V259.636H312.831V246.725H315.327V251.304C315.69 250.748 316.109 250.361 316.584 250.144C317.064 249.922 317.568 249.81 318.096 249.81Z" fill="#646464"/>
</g>
</g>
<defs>
<filter id="filter0_d" x="-18" y="-16" width="387" height="365" filterUnits="userSpaceOnUse" color-interpolation-filters="sRGB">
<feFlood flood-opacity="0" result="BackgroundImageFix"/>
<feColorMatrix in="SourceAlpha" type="matrix" values="0 0 0 0 0 0 0 0 0 0 0 0 0 0 0 0 0 0 127 0"/>
<feOffset dy="4"/>
<feGaussianBlur stdDeviation="10"/>
<feColorMatrix type="matrix" values="0 0 0 0 0 0 0 0 0 0 0 0 0 0 0 0 0 0 0.31 0"/>
<feBlend mode="normal" in2="BackgroundImageFix" result="effect1_dropShadow"/>
<feBlend mode="normal" in="SourceGraphic" in2="effect1_dropShadow" result="shape"/>
</filter>
<filter id="filter1_d" x="15" y="42" width="201" height="52" filterUnits="userSpaceOnUse" color-interpolation-filters="sRGB">
<feFlood flood-opacity="0" result="BackgroundImageFix"/>
<feColorMatrix in="SourceAlpha" type="matrix" values="0 0 0 0 0 0 0 0 0 0 0 0 0 0 0 0 0 0 127 0"/>
<feOffset/>
<feGaussianBlur stdDeviation="2.5"/>
<feColorMatrix type="matrix" values="0 0 0 0 0 0 0 0 0 0 0 0 0 0 0 0 0 0 0.31 0"/>
<feBlend mode="normal" in2="BackgroundImageFix" result="effect1_dropShadow"/>
<feBlend mode="normal" in="SourceGraphic" in2="effect1_dropShadow" result="shape"/>
</filter>
<filter id="filter2_d" x="15" y="167" width="211" height="36" filterUnits="userSpaceOnUse" color-interpolation-filters="sRGB">
<feFlood flood-opacity="0" result="BackgroundImageFix"/>
<feColorMatrix in="SourceAlpha" type="matrix" values="0 0 0 0 0 0 0 0 0 0 0 0 0 0 0 0 0 0 127 0"/>
<feOffset/>
<feGaussianBlur stdDeviation="2.5"/>
<feColorMatrix type="matrix" values="0 0 0 0 0 0 0 0 0 0 0 0 0 0 0 0 0 0 0.31 0"/>
<feBlend mode="normal" in2="BackgroundImageFix" result="effect1_dropShadow"/>
<feBlend mode="normal" in="SourceGraphic" in2="effect1_dropShadow" result="shape"/>
</filter>
<filter id="filter3_d" x="104" y="114" width="233" height="33" filterUnits="userSpaceOnUse" color-interpolation-filters="sRGB">
<feFlood flood-opacity="0" result="BackgroundImageFix"/>
<feColorMatrix in="SourceAlpha" type="matrix" values="0 0 0 0 0 0 0 0 0 0 0 0 0 0 0 0 0 0 127 0"/>
<feOffset/>
<feGaussianBlur stdDeviation="2.5"/>
<feColorMatrix type="matrix" values="0 0 0 0 0 0 0 0 0 0 0 0 0 0 0 0 0 0 0.31 0"/>
<feBlend mode="normal" in2="BackgroundImageFix" result="effect1_dropShadow"/>
<feBlend mode="normal" in="SourceGraphic" in2="effect1_dropShadow" result="shape"/>
</filter>
<filter id="filter4_d" x="76" y="223" width="261" height="60" filterUnits="userSpaceOnUse" color-interpolation-filters="sRGB">
<feFlood flood-opacity="0" result="BackgroundImageFix"/>
<feColorMatrix in="SourceAlpha" type="matrix" values="0 0 0 0 0 0 0 0 0 0 0 0 0 0 0 0 0 0 127 0"/>
<feOffset/>
<feGaussianBlur stdDeviation="2.5"/>
<feColorMatrix type="matrix" values="0 0 0 0 0 0 0 0 0 0 0 0 0 0 0 0 0 0 0.31 0"/>
<feBlend mode="normal" in2="BackgroundImageFix" result="effect1_dropShadow"/>
<feBlend mode="normal" in="SourceGraphic" in2="effect1_dropShadow" result="shape"/>
</filter>
</defs>
</svg>
