<?xml version="1.0" encoding="iso-8859-1"?>
<!-- Generator: Adobe Illustrator 19.0.0, SVG Export Plug-In . SVG Version: 6.00 Build 0)  -->
<svg version="1.1" id="Capa_1" xmlns="http://www.w3.org/2000/svg" xmlns:xlink="http://www.w3.org/1999/xlink" x="0px" y="0px"
	 viewBox="0 0 512 512" style="enable-background:new 0 0 512 512;" xml:space="preserve">
<g>
	<g>
		<path d="M256,0C115.2,0,0,115.2,0,256s115.2,256,256,256s256-115.2,256-256S396.8,0,256,0z M256,490.667
			C125.867,490.667,21.333,386.133,21.333,256c0-55.467,19.2-106.667,51.2-147.2l61.867,61.867c-4.267,6.4-6.4,12.8-6.4,21.333v160
			c0,40.533,34.133,74.667,74.667,74.667h55.467c27.733,0,55.467-12.8,74.667-34.133l8.533-12.8l59.733,59.733
			C362.667,471.467,311.467,490.667,256,490.667z M181.333,256c6.4,0,10.667-4.267,10.667-10.667v-17.067l23.467,23.467
			L326.4,362.667L315.733,377.6c-14.933,17.067-34.133,25.6-57.6,25.6h-55.467c-29.867,2.133-53.333-21.333-53.333-51.2V192
			c0-2.133,0-4.267,2.133-4.267l19.2,19.2v38.4C170.667,251.733,174.933,256,181.333,256z M192,198.4v-59.733
			c0-6.4,4.267-10.667,10.667-10.667c6.4,0,10.667,4.267,10.667,10.667v81.067L192,198.4z M266.667,256
			c6.4,0,10.667-4.267,10.667-10.667v-96c0-6.4,4.267-10.667,10.667-10.667s10.667,4.267,10.667,10.667v155.733l-64-64V117.333
			c0-6.4,4.267-10.667,10.667-10.667c6.4,0,10.667,4.267,10.667,10.667v128C256,251.733,260.267,256,266.667,256z M317.867,324.267
			l34.133-51.2c2.133-4.267,8.533-8.533,14.933-8.533c8.533,0,17.067,8.533,17.067,17.067l-44.8,61.867L317.867,324.267z
			 M418.133,424.533l-64-64L403.2,294.4c2.133-2.133,2.133-4.267,2.133-6.4v-4.267c0-21.333-17.067-38.4-38.4-38.4
			c-12.8,0-25.6,6.4-32,17.067L320,283.733v-134.4c0-17.067-14.933-32-32-32c-4.267,0-6.4,0-10.667,2.133v-2.133
			c0-17.067-14.933-32-32-32C230.4,85.333,217.6,96,215.467,108.8c-4.267-2.133-8.533-2.133-12.8-2.133c-17.067,0-32,14.933-32,32
			v23.467C166.4,160,164.267,160,160,160c-2.133,0-4.267,0-6.4,0L87.467,93.867c42.667-44.8,102.4-72.533,168.533-72.533
			c130.133,0,234.667,104.533,234.667,234.667C490.667,322.133,462.933,381.867,418.133,424.533z"/>
	</g>
</g>
<g>
</g>
<g>
</g>
<g>
</g>
<g>
</g>
<g>
</g>
<g>
</g>
<g>
</g>
<g>
</g>
<g>
</g>
<g>
</g>
<g>
</g>
<g>
</g>
<g>
</g>
<g>
</g>
<g>
</g>
</svg>
