<?xml version="1.0" encoding="iso-8859-1"?>
<!-- Generator: Adobe Illustrator 19.0.0, SVG Export Plug-In . SVG Version: 6.00 Build 0)  -->
<svg version="1.1" id="Capa_1" xmlns="http://www.w3.org/2000/svg" xmlns:xlink="http://www.w3.org/1999/xlink" x="0px" y="0px"
	 viewBox="0 0 512.009 512.009" style="enable-background:new 0 0 512.009 512.009;" xml:space="preserve">
<g>
	<g>
		<g>
			<path d="M221.765,122.886c0,9.044,7.331,16.383,16.383,16.383h257.478c9.044,0,16.383-7.339,16.383-16.383
				c0-9.043-7.331-16.383-16.383-16.383H238.148C229.096,106.503,221.765,113.842,221.765,122.886z"/>
			<path d="M495.626,153.966c-9.052,0-16.383,7.331-16.383,16.383v202.4H238.148c-9.052,0-16.383,7.322-16.383,16.374
				s7.331,16.392,16.383,16.392h257.478c9.044,0,16.374-7.339,16.383-16.383V170.349
				C512.009,161.305,504.678,153.966,495.626,153.966z"/>
			<path d="M238.592,479.247h-31.594V123.061c0.001-0.059,0.009-0.116,0.009-0.175s-0.008-0.116-0.009-0.175V62.723
				c0-9.044-7.331-16.383-16.383-16.383s-16.383,7.331-16.383,16.383v43.78H16.383C7.331,106.503,0,113.842,0,122.886v266.246
				c0,9.044,7.331,16.383,16.383,16.383h157.848v73.732h-31.603c-9.043,0-16.383,7.322-16.383,16.374s7.331,16.383,16.383,16.383
				h95.964c9.044,0,16.383-7.322,16.383-16.374S247.644,479.247,238.592,479.247z M32.757,372.749v-233.48h141.474v233.48H32.757z"
				/>
			<path d="M142.628,32.77h95.964c9.044,0,16.383-7.339,16.383-16.383c0-9.043-7.331-16.383-16.383-16.383h-95.964
				c-9.043,0-16.383,7.34-16.383,16.383C126.245,25.431,133.576,32.77,142.628,32.77z"/>
		</g>
	</g>
</g>
<g>
</g>
<g>
</g>
<g>
</g>
<g>
</g>
<g>
</g>
<g>
</g>
<g>
</g>
<g>
</g>
<g>
</g>
<g>
</g>
<g>
</g>
<g>
</g>
<g>
</g>
<g>
</g>
<g>
</g>
</svg>
