<?xml version="1.0" standalone="no"?>
<!DOCTYPE svg PUBLIC "-//W3C//DTD SVG 20010904//EN"
 "http://www.w3.org/TR/2001/REC-SVG-20010904/DTD/svg10.dtd">
<svg version="1.0" xmlns="http://www.w3.org/2000/svg"
 width="2125.000000pt" height="2125.000000pt" viewBox="0 0 2125.000000 2125.000000"
 preserveAspectRatio="xMidYMid meet">
<metadata>
Created by potrace 1.11, written by Peter Selinger 2001-2013
</metadata>
<g transform="translate(0.000000,2125.000000) scale(0.100000,-0.100000)"
fill="#000000" stroke="none">
<path d="M4487 16674 c-1 -1 -38 -4 -82 -7 -128 -9 -248 -43 -367 -103 -107
-54 -153 -89 -262 -198 l-79 -79 30 -26 c16 -14 78 -62 137 -106 58 -44 142
-107 185 -140 43 -33 150 -114 237 -180 342 -259 1015 -768 1199 -908 72 -54
141 -107 155 -117 25 -19 162 -123 435 -330 77 -58 196 -149 265 -200 69 -52
130 -99 137 -105 7 -5 40 -30 73 -55 33 -25 84 -63 113 -86 29 -22 210 -159
402 -304 333 -251 502 -379 680 -515 44 -34 202 -153 350 -266 149 -112 358
-270 465 -352 107 -81 281 -212 385 -291 295 -223 738 -559 863 -655 62 -47
126 -95 142 -106 16 -11 82 -61 147 -111 65 -49 211 -161 325 -248 l208 -157
102 78 c57 42 108 81 113 86 6 4 73 55 149 113 77 57 153 115 170 129 17 13
99 74 181 136 83 62 155 118 161 124 7 5 24 19 40 30 42 30 147 108 164 122
17 15 363 276 700 530 129 98 237 180 240 183 3 3 21 17 40 30 19 13 37 27 40
30 3 3 88 68 190 145 254 192 271 204 305 231 17 12 158 120 315 239 157 118
381 288 499 378 117 89 235 178 262 197 26 19 92 69 146 110 54 42 163 125
243 185 80 60 150 113 155 117 6 4 24 18 40 31 17 13 131 100 255 193 124 93
227 171 230 174 3 3 68 52 145 110 77 58 142 107 145 110 3 3 79 61 170 130
91 68 228 172 305 230 77 58 262 198 410 310 149 113 277 210 285 217 8 6 65
49 125 95 446 336 595 450 601 459 8 13 -153 171 -221 216 -33 22 -85 53 -115
68 -56 28 -210 87 -210 80 0 -2 -14 1 -32 6 -18 5 -66 12 -108 15 -58 5
-12376 13 -12383 8z"/>
<path d="M3499 14733 c0 -5 -1 -1461 -1 -3238 -1 -2847 2 -3384 16 -3462 2
-10 7 -40 10 -68 8 -60 42 -225 56 -277 6 -21 11 -41 12 -45 1 -13 68 -205 85
-243 72 -168 220 -437 282 -512 6 -7 51 -62 99 -123 290 -360 705 -641 1156
-786 94 -30 277 -73 356 -84 25 -3 56 -8 70 -10 96 -15 227 -18 795 -20 575
-3 751 -6 880 -19 22 -2 75 -7 117 -11 43 -3 92 -8 110 -10 18 -3 53 -7 78
-10 110 -13 150 -20 325 -51 77 -13 176 -33 220 -44 44 -10 91 -21 105 -24
242 -46 696 -195 1045 -343 170 -72 485 -230 655 -328 153 -88 403 -250 557
-361 l103 -75 43 31 c480 345 875 569 1341 761 66 27 130 54 141 59 48 21 310
111 417 144 219 66 566 152 733 180 98 17 139 23 192 31 86 12 109 15 153 21
25 3 56 7 70 9 14 2 61 7 105 10 44 3 96 8 115 10 99 13 312 18 880 20 549 1
697 5 800 20 14 2 45 7 70 10 456 64 969 318 1314 653 67 65 192 202 215 235
8 12 24 31 34 42 42 45 170 248 231 365 76 146 160 353 181 448 2 9 11 42 20
72 33 121 62 300 71 455 9 137 11 6554 2 6568 -5 8 -14 5 -30 -9 -13 -11 -33
-27 -45 -35 -11 -8 -77 -57 -145 -108 -133 -102 -259 -198 -778 -591 -184
-140 -397 -301 -473 -359 -76 -58 -160 -122 -187 -141 -27 -19 -104 -77 -172
-129 -132 -101 -278 -213 -613 -466 -115 -88 -298 -226 -405 -307 -107 -82
-325 -247 -485 -367 -460 -348 -638 -483 -666 -505 -15 -12 -37 -29 -50 -38
-13 -9 -33 -24 -44 -33 -29 -23 -311 -237 -536 -406 -107 -81 -273 -206 -369
-279 -337 -256 -778 -590 -1195 -905 -137 -104 -262 -198 -276 -209 -14 -12
-40 -32 -59 -46 -37 -28 -139 -105 -155 -117 -6 -5 -37 -28 -70 -53 -33 -25
-65 -49 -72 -55 -21 -17 -36 -28 -118 -89 -44 -33 -82 -62 -85 -66 -6 -8 -97
-70 -103 -70 -2 0 -85 62 -185 137 -99 76 -266 203 -372 283 -410 310 -557
422 -600 455 -25 19 -209 159 -410 310 -201 152 -372 281 -380 288 -9 7 -99
75 -200 151 -102 77 -187 143 -190 146 -3 4 -12 11 -21 16 -9 5 -32 21 -50 36
-19 15 -88 67 -154 117 -66 50 -124 94 -130 99 -5 4 -122 93 -260 197 -137
104 -333 252 -435 329 -102 77 -214 162 -250 189 -36 27 -76 58 -90 68 -14 11
-70 54 -125 96 -55 41 -111 84 -125 94 -38 29 -360 273 -600 454 -117 88 -218
165 -224 170 -6 6 -47 37 -91 69 -44 33 -86 66 -93 73 -7 7 -17 13 -21 13 -4
0 -16 8 -27 18 -18 17 -234 181 -659 502 -104 79 -203 154 -220 167 -39 31
-35 27 -150 114 -128 96 -192 145 -230 175 -16 12 -91 69 -165 124 -163 123
-140 105 -426 323 -128 97 -236 177 -239 177 -3 0 -5 -3 -6 -7z m2200 -4319
c53 -40 101 -77 106 -81 6 -5 37 -28 70 -52 33 -25 62 -47 65 -51 3 -3 21 -17
40 -30 19 -14 42 -30 50 -37 22 -18 392 -298 660 -500 129 -97 237 -179 240
-182 3 -4 57 -45 120 -91 121 -89 133 -99 153 -115 7 -6 140 -107 297 -225
157 -118 290 -219 296 -225 6 -5 98 -75 204 -155 218 -164 465 -352 495 -375
11 -9 138 -104 281 -213 144 -108 260 -199 259 -201 -6 -5 -2748 -2 -2775 4
-14 2 -41 8 -60 11 -85 15 -188 58 -278 118 -173 114 -290 280 -344 488 -21
82 -21 95 -22 1050 l-1 967 24 -16 c13 -8 67 -49 120 -89z m10005 -846 c-1
-524 -4 -971 -8 -993 -47 -310 -275 -576 -565 -660 -123 -36 -155 -37 -1539
-37 -750 0 -1365 2 -1366 3 -2 2 51 45 118 95 404 305 764 578 781 592 11 10
36 28 55 42 19 13 37 27 40 30 3 3 84 65 180 137 96 72 234 176 305 230 72 54
231 175 355 268 124 94 227 172 230 175 3 3 102 79 220 168 118 89 312 235
430 325 118 89 338 256 489 370 150 114 274 207 275 207 1 0 1 -429 0 -952z"/>
</g>
</svg>
